<mxfile host="65bd71144e" scale="3" border="0">
    <diagram id="uOVqhswZ864Ok9q1NzIZ" name="第 1 页">
        <mxGraphModel dx="214" dy="667" grid="1" gridSize="10" guides="1" tooltips="1" connect="1" arrows="1" fold="1" page="1" pageScale="1" pageWidth="827" pageHeight="1169" math="0" shadow="0">
            <root>
                <mxCell id="0"/>
                <mxCell id="1" parent="0"/>
                <mxCell id="2" value="" style="shape=image;verticalLabelPosition=bottom;labelBackgroundColor=default;verticalAlign=top;aspect=fixed;imageAspect=0;image=data:image/png,iVBORw0KGgoAAAANSUhEUgAABnMAAAOECAIAAAD161POAAAgAElEQVR4Aezd63nrKhYA0FTlelzHNOBi3ItrOSXMJwESSKAHsZ3ceOXHRA82bJZw7tEe2f7654cAAQIECBAgQIAAAQIECBAgQIAAgfMCX+dDRBAgQIAAAQIECBAgQIAAAQIECBAg8E9lzSIgQIAAAQIECBAgQIAAAQIECBAg0COgstajJoYAAQIECBAgQIAAAQIECBAgQICAypo1QIAAAQIECBAgQIAAAQIECBAgQKBHQGWtR00MAQIECBAgQIAAAQIECBAgQIAAAZU1a4AAAQIECBAgQIAAAQIECBAgQIBAj4DKWo+aGAIECBAgQIAAAQIECBAgQIAAAQIqa9YAAQIECBAgQIAAAQIECBAgQIAAgR4BlbUeNTEECBAgQIAAAQIECBAgQIAAAQIEVNasAQIECBAgQIAAAQIECBAgQIAAAQI9AiprPWpiCBAgQIAAAQIECBAgQIAAAQIECKisWQMECBAgQIAAAQIECBAgQIAAAQIEegRU1nrUxBAgQIAAAQIECBAgQIAAAQIECBBQWbMGCBAgQIAAAQIECBAgQIAAAQIECPQIqKz1qIkhQIAAAQIECBAgQIAAAQIECBAgoLJmDRAgQIAAAQIECBAgQIAAAQIECBDoEVBZ61ETQ4AAAQIECBAgQIAAAQIECBAgQEBlzRogQIAAAQIECBAgQIAAAQIECBAg0COgstajJoYAAQIECBAgQIAAAQIECBAgQICAypo1QIAAAQIECBAgQIAAAQIECBAgQKBHQGWtR00MAQIECBAgQIAAAQIECBAgQIAAAZU1a4AAAQIECBAgQIAAAQIECBAgQIBAj4DKWo+aGAIECBAgQIAAAQIECBAgQIAAAQIqa9YAAQIECBAgQIAAAQIECBAgQIAAgR4BlbUeNTEECBAgQIAAAQIECBAgQIAAAQIEVNasAQIECBAgQIAAAQIECBAgQIAAAQI9AiprPWpiCBAgQIAAAQIECBAgQIAAAQIECKisWQMECBAgQIAAAQIECBAgQIAAAQIEegRU1nrUxBAgQIAAAQIECBAgQIAAAQIECBBQWbMGCBAgQIAAAQIECBAgQIAAAQIECPQIqKz1qIkhQIAAAQIECBAgQIAAAQIECBAgoLJmDRAgQIAAAQIECBAgQIAAAQIECBDoEVBZ61ETQ4AAAQIECBAgQIAAAQIECBAgQEBlzRogQIAAAQIECBAgQIAAAQIECBAg0COgstajJoYAAQIECBAgQIAAAQIECBAgQICAypo1QIAAAQIECBAgQIAAAQIECBAgQKBHQGWtR00MAQIECBAgQIAAAQIECBAgQIAAAZU1a4AAAQIECBAgQIAAAQIECBAgQIBAj4DKWo+aGAIECBAgQIAAAQIECBAgQIAAAQIqa9YAAQIECBAgQIAAAQIECBAgQIAAgR4BlbUeNTEECBAgQIAAAQIECBAgQIAAAQIEVNasAQIECBAgQIAAAQIECBAgQIAAAQI9AiprPWpiCBAgQIAAAQIECBAgQIAAAQIECKisWQMECBAgQIAAAQIECBAgQIAAAQIEegRU1nrUxBAgQIAAAQIECBAgQIAAAQIECBBQWbMGCBAgQIAAAQIECBAgQIAAAQIECPQIqKz1qIkhQIAAAQIECBAgQIAAAQIECBAgoLJmDRAgQIAAAQIECBAgQIAAAQIECBDoEVBZ61ETQ4AAAQIECBAgQIAAAQIECBAgQEBlzRogQIAAAQIECBAgQIAAAQIECBAg0COgstajJoYAAQIECBAgQIAAAQIECBAgQICAypo1QIAAAQIECBAgQIAAAQIECBAgQKBHQGWtR00MAQIECBAgQIAAAQIECBAgQIAAAZU1a4AAAQIECBAgQIAAAQIECBAgQIBAj4DKWo+aGAIECBAgQIAAAQIECBAgQIAAAQIqa9YAAQIECBAgQIAAAQIECBAgQIAAgR4BlbUeNTEECBAgQIAAAQIECBAgQIAAAQIEVNasAQIECBAgQIAAAQIECBAgQIAAAQI9AiprPWpiCBAgQIAAAQIECBAgQIAAAQIECKisWQMECBAgQIAAAQIECBAgQIAAAQIEegRU1nrUxBAgQIAAAQIECBAgQIAAAQIECBBQWbMGCBAgQIAAAQIECBAgQIAAAQIECPQIqKz1qIkhQIAAAQIECBAgQIAAAQIECBAgoLJmDRAgQIAAAQIECBAgQIAAAQIECBDoEVBZ61ETQ4AAAQIECBAgQIAAAQIECBAgQEBlzRogQIAAAQIECBAgQIAAAQIECBAg0COgstajJoYAAQIECBAgQIAAAQIECBAgQICAypo1QIAAAQIECBAgQIAAAQIECBAgQKBHQGWtR00MAQIECBAgQIAAAQIECBAgQIAAAZU1a4AAAQIECBAgQIAAAQIECBAgQIBAj4DKWo+aGAIECBAgQIAAAQIECBAgQIAAAQIqa9YAAQIECBAgQIAAAQIECBAgQIAAgR4BlbUeNTEECBAgQIAAAQIECBAgQIAAAQIEVNasAQIECBAgQIAAAQIECBAgQIAAAQI9AiprPWpiCBAgQIAAAQIECBAgQIAAAQIECKisWQMECBAgQIAAAQIECBAgQIAAAQIEegRU1nrUxBAgQIAAAQIECBAgQIAAAQIECBBQWbMGCBAgQIAAAQIECBAgQIAAAQIECPQIqKz1qIkhQIAAAQIECBAgQIAAAQIECBAgoLJmDRAgQIAAAQIECBAgQIAAAQIECBDoEVBZ61ETQ4AAAQIECBAgQIAAAQIECBAgQEBlzRogQIAAAQIECBAgQIAAAQIECBAg0COgstajJoYAAQIECBAgQIAAAQIECBAgQICAypo1QIAAAQIECBAgQIAAAQIECBAgQKBHQGWtR00MAQIECBAgQIAAAQIECBAgQIAAAZU1a4AAAQIECBAgQIAAAQIECBAgQIBAj4DKWo+aGAIECBAgQIAAAQIECBAgQIAAAQIqa9YAAQIECBAgQIAAAQIECBAgQIAAgR4BlbUeNTEECBAgQIAAAQIECBAgQIAAAQIEVNasAQIECBAgQIAAAQIECBAgQIAAAQI9AiprPWpiCBAgQIAAAQIECBAgQIAAAQIECKisWQMECBAgQIAAAQIECBAgQIAAAQIEegRU1nrUxBAgQIAAAQIECBAgQIAAAQIECBBQWbMGCBAgQIAAAQIECBAgQIAAAQIECPQIqKz1qIkhQIAAAQIECBAgQIAAAQIECBAgoLJmDRAgQIAAAQIECBAgQIAAAQIECBDoEVBZ61ETQ4AAAQIECBAgQIAAAQIECBAgQEBlzRogQIAAAQIECBAgQIAAAQIECBAg0COgstajJoYAAQIECBAgQIAAAQIECBAgQICAypo1QIAAAQIECBAgQIAAAQIECBAgQKBHQGWtR00MAQIECBAgQIAAAQIECBAgQIAAAZU1a4AAAQIECBAgQIAAAQIECBAgQIBAj4DKWo+aGAIECBAgQIAAAQIECBAgQIAAAQIqa9YAAQIECBAgQIAAAQIECBAgQIAAgR4BlbUeNTEECBAgQIAAAQIECBAgQIAAAQIEVNasAQIECBAgQIAAAQIECBAgQIAAAQI9AiprPWpiCBAgQIAAAQIECBAgQIAAAQIECKisWQMECBAgQIAAAQIECBAgQIAAAQIEegRU1nrUxBAgQIAAAQIECBAgQIAAAQIECBBQWbMGCBAgQIAAAQIECBAgQIAAAQIECPQIqKz1qIkhQIAAAQIECBAgQIAAAQIECBAgoLJmDRAgQIAAAQIECBAgQIAAAQIECBDoEVBZ61ETQ4AAAQIECBAgQIAAAQIECBAgQEBlzRogQIAAAQIECBAgQIAAAQIECBAg0COgstajJoYAAQIECBAgQIAAAQIECBAgQICAypo1QIAAAQIECBAgQIAAAQIECBAgQKBHQGWtR00MAQIECBAgQIAAAQIECBAgQIAAAZU1a4AAAQIECBAgQIAAAQIECBAgQIBAj4DKWo+aGAIECBAgQIAAAQIECBAgQIAAAQIqa9YAAQIECBAgQIAAAQIECBAgQIAAgR4BlbUeNTEECBAgQIAAAQIECBAgQIAAAQIEVNasAQIECBAgQIAAAQIECBAgQIAAAQI9AiprPWpiCBAgQIAAAQIECBAgQIAAAQIECKisWQMECBAgQIAAAQIECBAgQIAAAQIEegRU1nrUxBAgQIAAAQIECBAgQIAAAQIECBBQWbMGCBAgQIAAAQIECBAgQIAAAQIECPQIqKz1qIkhQIAAAQIECBAgQIAAAQIECBAgoLJmDRAgQIAAAQIECBAgQIAAAQIECBDoEVBZ61ETQ4AAAQIECBAgQIAAAQIECBAgQEBlzRogQIAAAQIECBAgQIAAAQIECBAg0COgstajJoYAAQIECBAgQIAAAQIECBAgQICAypo1QIAAAQIECBAgQIAAAQIECBAgQKBHQGWtR00MAQIECBAgQIAAAQIECBAgQIAAAZU1a4AAAQIECBAgQIAAAQIECBAgQIBAj4DKWo+aGAIECBAgQIAAAQIECBAgQIAAAQIqa9YAAQIECBAgQIAAAQIECBAgQIAAgR4BlbUeNTEECBAgQIAAAQIECBAgQIAAAQIEVNasAQIECBAgQIAAAQIECBAgQIAAAQI9AiprPWpiCBAgQIAAAQIECBAgQIAAAQIECKisWQMECBAgQIAAAQIECBAgQIAAAQIEegRU1nrUxBAgQIAAAQIECBAgQIAAAQIECBBQWbMGCBAgQIAAAQIECBAgQIAAAQIECPQIqKz1qIkhQIAAAQIECBAgQIAAAQIECBAgoLJmDRAgQIAAAQIECBAgQIAAAQIECBDoEVBZ61ETQ4AAAQIECBAgQIAAAQIECBAgQEBlzRogQIAAAQIECBAgQIAAAQIECBAg0COgstajJoYAAQIECBAgQIAAAQIECBAgQICAypo1QIAAAQIECBAgQIAAAQIECBAgQKBHQGWtR00MAQIECBAgQIAAAQIECBAgQIAAAZU1a4AAAQIECBAgQIAAAQIECBAgQIBAj4DKWo+aGAIECBAgQIAAAQIECBAgQIAAAQIqa9YAAQIECBAgQIAAAQIECBAgQIAAgR4BlbUeNTEECBAgQIAAAQIECBAgQIAAAQIEVNasAQIECBAgQIAAAQIECBAgQIAAAQI9AiprPWpiCBAgQIAAAQIECBAgQIAAAQIECKisWQMECBAgQIAAAQIECBAgQIAAAQIEegRU1nrUxBAgQIAAAQIECBAgQIAAAQIECBBQWbMGCBAgQIAAAQIECBAgQIAAAQIECPQIqKz1qIkhQIAAAQIECBAgQIAAAQIECBAgoLJmDRAgQIAAAQIECBAgQIAAAQIECBDoEVBZ61ETQ4AAAQIECBAgQIAAAQIECBAgQEBlzRogQIAAAQIECBAgQIAAAQIECBAg0COgstajJoYAAQIECBAgQIAAAQIECBAgQICAypo1QIAAAQIECBAgQIAAAQIECBAgQKBHQGWtR00MAQIECBAgQIAAAQIECBAgQIAAAZU1a4AAAQIECBAgQIAAAQIECBAgQIBAj4DKWo+aGAIECBAgQIAAAQIECBAgQIAAAQIqa9YAAQIECBAgQIAAAQIECBAgQIAAgR4BlbUeNTEECBAgQIAAAQIECBAgQIAAAQIEVNasAQIECBAgQIAAAQIECBAgQIAAAQI9AiprPWpiCBAgQIAAAQIECBAgQIAAAQIECKisWQMECBAgQIAAAQIECBAgQIAAAQIEegRU1nrUxBAgQIAAAQIECBAgQIAAAQIECBBQWbMGCBAgQIAAAQIECBAgQIAAAQIECPQIqKz1qIkhQIAAAQIECBAgQIAAAQIECBAgoLJmDRAgQIAAAQIECBAgQIAAAQIECBDoEVBZ61ETQ4AAAQIECBAgQIAAAQIECBAgQEBlzRogQIAAAQIECBAgQIAAAQIECBAg0COgstajJoYAAQIECBAgQIAAAQIECBAgQICAypo1QIAAAQIECBAgQIAAAQIECBAgQKBHQGWtR00MAQIECBAgQIAAAQIECBAgQIAAAZU1a4AAAQIECBAgQIAAAQIECBAgQIBAj4DKWo+aGAIECBAgQIAAAQIECBAgQIAAAQIqa9YAAQIECBAgQIAAAQIECBAgQIAAgR4BlbUeNTEECBAgQIAAAQIECBAgQIAAAQIEVNasAQIECBAgQIAAAQIECBAgQIAAAQI9AiprPWpiCBAgQIAAAQIECBAgQIAAAQIECKisWQMECBAgQIAAAQIECBAgQIAAAQIEegRU1nrUxBAgQIAAAQIECBAgQIAAAQIECBBQWbMGCBAgQIAAAQIECBAgQIAAAQIECPQIqKz1qIkhQIAAAQIECBAgQIAAAQIECBAgoLJmDRAgQIAAAQIECBAgQIAAAQIECBDoEVBZ61ETQ4AAAQIECBAgQIAAAQIECBAgQEBlzRogQIAAAQIECBAgQIAAAQIECBAg0COgstajJoYAAQIECBAgQIAAAQIECBAgQICAypo1QIAAAQIECBAgQIAAAQIECBAgQKBHQGWtR00MAQIECBAgQIAAAQIECBAgQIAAAZU1a4AAAQIECBAgQIAAAQIECBAgQIBAj4DKWo+aGAIECBAgQIAAAQIECBAgQIAAAQIqa9YAAQIECBAgQIAAAQIECBAgQIAAgR4BlbUeNTEECBAgQIAAAQIECBAgQIAAAQIEVNasAQIECBAgQIAAAQIECBAgQIAAAQI9AiprPWpiCBAgQIAAAQIECBAgQIAAAQIECKisWQMECBAgQIAAAQIECBAgQIAAAQIEegRU1nrUxBAgQIAAAQIECBAgQIAAAQIECBBQWbMGCBAgQIAAAQIECBAgQIAAAQIECPQIqKz1qIkhQIAAAQIECBAgQIAAAQIECBAgoLJmDRAgQIAAAQIECBAgQIAAAQIECBDoEVBZ61ETQ4AAAQIECBAgQIAAAQIECBAgQEBlzRogQIAAAQIECBAgQIAAAQIECBAg0COgstajJoYAAQIECBAgQIAAAQIECBAgQICAypo1QIAAAQIECBAgQIAAAQIECBAgQKBHQGWtR00MAQIECBAgQIAAAQIECBAgQIAAAZU1a4AAAQIECBAgQIAAAQIECBAgQIBAj4DKWo+aGAIECBAgQIAAAQIECBAgQIAAAQIqa9YAAQIECBAgQIAAAQIECBAgQIAAgR4BlbUeNTEECBAgQIAAAQIECBAgQIAAAQIEVNasAQIECBAgQIAAAQIECBAgQIAAAQI9AiprPWpiCBAgQIAAAQIECBAgQIAAAQIECKisWQMECBAgQIAAAQIECBAgQIAAAQIEegRU1nrUxBAgQIAAAQIECBAgQIAAAQIECBBQWbMGCBAgQIAAAQIECBAgQIAAAQIECPQIqKz1qIkhQIAAAQIECBAgQIAAAQIECBAgoLJmDRAgQIAAAQIECBAgQIAAAQIECBDoEVBZ61ETQ4AAAQIECBAgQIAAAQIECBAgQEBlzRogQIAAAQIECBAgQIAAAQIECBAg0COgstajJoYAAQIECBAgQIAAAQIECBAgQICAypo1QIAAAQIECBAgQIAAAQIECBAgQKBHQGWtR00MAQIECBAgQIAAAQIECBAgQIAAAZU1a4AAAQIECBAgQIAAAQIECBAgQIBAj4DKWo+aGAIECBAgQIAAAQIECBAgQIAAAQIqa9YAAQIECBAgQIAAAQIECBAgQIAAgR4BlbUeNTEECBAgQIAAAQIECBAgQIAAAQIEVNasAQIECBAgQIAAAQIECBAgQIAAAQI9AiprPWpiCBAgQIAAAQIECBAgQIAAAQIECKisWQMECBAgQIAAAQIECBAgQIAAAQIEegRU1nrUxBAgQIAAAQIECBAgQIAAAQIECBBQWbMGCBAgQIAAAQIECBAgQIAAAQIECPQIqKz1qIkhQIAAAQIECBAgQIAAAQIECBAgoLJmDRAgQIAAAQIECBAgQIAAAQIECBDoEVBZ61ETQ4AAAQIECBAgQIAAAQIECBAgQEBlzRogQIAAAQIECBAgQIAAAQIECBAg0COgstajJoYAAQIECBAgQIAAAQIECBAgQICAypo1QIAAAQIECBAgQIAAAQIECBAgQKBHQGWtR00MAQIECBAg8FaBx/12febP7f54a/6/Y7BHjviZBL/jQsiCAAECBAgQ+EsCKmt/6WqaCwECBAgQ+KMCj9vl65k/l9snVtbu18zwMwn+6OvDtAgQIECAAIEfFFBZ+0F8QxMgQIAAAQLHBFTWjjltt1JZ2/ZxlgABAgQIECDQIaCy1oEmhAABAgQIEHivgMraM7xV1p6hqA8CBAgQIECAQCGgslZw2CFAgAABAgR+o8Cysnb55s/1P/xu0PIz585MRGXtN65tOREgQIAAAQL/cQGVtf/4BZQ+AQIECBD4BIGysvbZHxFWWlzvx6+/ytpxKy0JECBAgAABAgcFVNYOQmlGgAABAgQI/JxAWU1SWZu/iUBl7edWpZEJECBAgAABAv/+/VNZswwIECBAgACBXy+gsjZfotJCZW2WsUWAAAECBAgQ+AEBlbUfQDckAQIECBAgcE6grCZ5Zs0za+fWj9YECBAgQIAAgZcJqKy9jFbHBAgQIECAwLMEVNZmydLCM2uzjC0CBAgQIECAwA8IqKz9ALohCRAgQIAAgXMCZTXJM2ueWTu3frQmQIAAAQIECLxMQGXtZbQ6JkCAAAECBJ4loLI2S5YWnlmbZWwRIECAAAECBH5AQGXtB9ANSYAAAQIECJwTKKtJnlnzzNq59aM1AQIECBAgQOBlAiprL6PVMQECBAgQIPAsgd9VWXs87vf77Tr83B6HpvjIQsaw+/1+fxyLXQ5QWjz9mbVxbmFy1+utP81l2uN+YEi9p/77HKoDOEiAAAECBAgQeLeAytq7xY1HgAABAgQInBYoq0kvembtfr3MP7Wa2eN+u17mx8WGrZ3C1mPos4xY7F0u170S2+OWJ7bqb855sbWawv2aDb5E3E71cr3d+wtgI9yOw7cGOL2gBBAgQIAAAQIEniWgsvYsSf0QIECAAAECLxN4U2WtXXga6k7Z2WmzWVmrVOGmoPXGZuGqnPw6uHVkWTv716qsDaW7VifF8VWPuxf8HMPXUGbc7VMDAgQIECBAgMBvElBZ+01XQy4ECBAgQIBAVaAsLp0v8FQ7XR5sFp4aVbWh6FSvrJXpFsWpjZ3WtPp6+/pa9Veb4OnO6zNeWg77rWrkBsFwapV2rW/HCBAgQIAAAQK/RUBl7bdcCXkQIECAAAECTYGy/vOi2kut8PSvHHlVFKrUmVp1uMtl/GS28D+r93SGnqsz20lhlVM6sOpsPcHiyFDVynNsPci26rd22ZpJF0OcYaiN4hgBAgQIECBA4McFVNZ+/BJIgAABAgQIENgTKOs0h0o7e12uzxdlpjBGcSgWv8Ln7t8f48+ylzLRMaL9Ts/qWyUrtbrhSwXmn/Ktm5fhSwYaP8s3Vhazudzut/k9oM1Pe6s+eHbkAhSDDUW75gep1YY4MsLS3j4BAgQIECBA4CcEVNZ+Qt2YBAgQIECAwCmBsmD1orJLUQu63B6LQXe/aeBf5QG3/VQfxbBDLa5SW8uxyrR2GueB5eespSfbDrz9cp3iXo7jsFOiBz49bT3EmYkVs7RDgAABAgQIEHirgMraW7kNRoAAAQIECPQITEWa8BTYbfk0Vk+fq5iixHW5zm+GPFAZGjsrOjjxiWHl7PZKXWXrMwWoZX4D5n7pb5xaOeh++S/i3q+rLyhdsacDyyHOzCz14TcBAgQIECBA4O0CKmtvJzcgAQIECBAgcFZgWXWZH7g6vdUuJdUKT8MTZAfLeMscT1WGFmNvxZbjbLVcKi8GOVwfG/sph919sm459pH9RX5npnake20IECBAgAABAq8QUFl7hao+CRAgQIAAgacKLMs6p+tpc8Cpylq78Wp63ywLLWa4UVUqW2403Evx6PNqqZ9yhidoUge7v8upvWKE3RQ0IECAAAECBAicFFBZOwmmOQECBAgQIPB+gbLkMpfJOrba9ZqycnTuia7lZ5idKXgFznKK7SwXH+Z2ZqDFBM+EjjmW8afDDyybYoQNgwNdaUKAAAECBAgQeI+Aytp7nI1CgAABAgQIfEOgLDt11NPmkHa9pijrHP4EsjCrMsH2GBsGR7so252pb5UT7Eiy6KAjfmP24dTLB9jNQAMCBAgQIECAwEkBlbWTYJoTIECAAAEC7xcoq0mX6+3e/9P82LSirHPurZJlfoe+OXONWIzfrluVY/VX1s5ExmQPZrie2tEjLx/gaCLaESBAgAABAgSOCqisHZXSjgABAgQIEPgxgbKa1K46fSvBb5R1itDOwtriDaXNwldp0WxWoSiy7EEshu7poJJUcejbGRa92SFAgAABAgQIvEFAZe0NyIYgQIAAAQIEvidQlHTOPU52fOBvlHWK0K/Lte/nMr9ndeO7N0uL/3Rl7bH8KRxfUbo7vhq0JECAAAECBAgcE1BZO+akFQECBAgQIPCDAmU16UUll/6yTpleXh/r326WzMrBms0qV6t/grGzYuiTV+Fxv9+u18vlUtQPt3xODlCZsEMECBAgQIAAgdcLqKy93tgIBAgQIECAwDcFipLO73tmrUxvq1p0+Fy7rFQO9tsra4/77Xq4llbqtAm+uZqEEyBAgAABAgSeKKCy9kRMXREgQIAAAQKvESirSS8qufQ/0lWmV9aHOvfacywH+8WVtce9t6YWzNoEr1lkeiVAgAABAgQI9AiorPWoiSFAgAABAgTeKlBWk15UcnlWZe3ynW8uTd95+mh+hWlp8Vsra9+sqg21tRdd5rcuXIMRIECAAAECf19AZe3vX2MzJECAAAEC/3mBspr0opLL8yprzarYMy5EafErK2tlivNTe5fr9Xa/j19bUJfovwT1/hwlQIAAAQIECLxcQGXt5cJxZ7AAACAASURBVMQGIECAAAECBL4rUJZqfl1l7V9REfo6U+06L1NanBmryLIHsRi62UHRaiyrXa63+6Fq47czPM8pggABAgQIECDwPQGVte/5iSZAgAABAgTeIFAWa5o1ne9l8o2yzlvyi7Mrx/p9lbWC8evr63qsqDbOroh90WX+3iIRTYAAAQIECBBYCKisLUDsEiBAgAABAr9PoKwmvajk8p2yThH72k8IKy1+XWWtTO/k83sF44su8+9b3TIiQIAAAQIE/tMCKmv/6csneQIECBAg8BkCZbnmRSWXb5V1iuCXltZKi99WWSuzO3ml3of4GS8bsyRAgAABAgTeIaCy9g5lYxAgQIAAAQLfEvhWveboyEVd52RN6N/io9ZOPqt1NMWhXWnxuytrZ7JbEZ6+BGcUtSVAgAABAgQIPElAZe1JkLohQIAAAQIEXidQVpNeVHL5XmVtWVo7X1sbxr/sfypZv8U3J7go6tWvwpOyG774oD7A6xaZngkQIECAAAECPQIqaz1qYggQIECAAIG3CvTXa06k+d3CU5nkyc/uz4L3qmtFnmcKeEVgT90qS7JV+CqaDF9fcOwCPIrcxi8UVVk7RqcVAQIECBAg8MMCKms/fAEMT4AAAQIECOwLlPWanqLQ/hjlQ2ddY5RpHn7u6nG/XkIxKf3v5uiLUTbbFtMuqlfHw+Y+ipEbHRRtWvW3ucthaxFyCKHswR4BAgQIECBA4McEVNZ+jN7ABAgQIECAwFGBsvbSqOkc7azV7tuFp0aRaOsZtMf9tqyq7T/oVSR64m2TRVwPYnEZWh0UjUJ18f5omD+KouLldrumstqJaTX6dpgAAQIECBAg8BYBlbW3MBuEAAECBAgQ+I5AWa1p1XS+M8K/xQfo94+xegAtFosu1+vtdk8/t+v1snhQLbQ7MnDJMVavrrf74xEKWI/H436/3dblrPdU1haQafaXa5j8kNyQ3mr6w8S/neE3l4BwAgQIECBAgMBpAZW102QCCBAgQIAAgXcLlKWkI8WnjgyfV9Yp0421pSO/Ds+syLXac6WrIqhyftesmNdWB8VI1fQWBy/hA9mKuK0BdlPVgAABAgQIECDwJgGVtTdBG4YAAQIECBDoFyhKOq/6aPunlnWqb/NclJOK3cv11nrPZNWt9Whc6rRSl/r2BIvLUBkgS7R4m2fKqf47e7fstzPMMrBJgAABAgQIEHiLgMraW5gNQoAAAQIECHxHoCjp/Ccqa2G2Q32p+p7PvMZ0yUpLp5Aelc9omzquFL6+XbcqLkNlgEX2+7MfZp7XE7+d4SIDuwQIECBAgACBlwuorL2c2AAECBAgQIDApwuMn3x2HX4u48+4ebuXZaUupMf4cNyyencZPtWsq78XBA2f+jbNfJj+9Tp85lpeUXvBqLokQIAAAQIECLxHQGXtPc5GIUCAAAECBAgQIECAAAECBAgQ+GsCKmt/7YqaDwECBAgQIECAAAECBAgQIECAwHsEVNbe42wUAgQIECBAgAABAgQIECBAgACBvyagsvbXrqj5ECBAgAABAgQIECBAgAABAgQIvEdAZe09zkYhQIAAAQIECBAgQIAAAQIECBD4awIqa3/tipoPAQIECBAgQIAAAQIECBAgQIDAewRU1t7jbBQCBAgQIECAAAECBAgQIECAAIG/JqCy9teuqPkQIECAAAECBAgQIECAAAECBAi8R0Bl7T3ORiFAgAABAgQIECBAgAABAgQIEPhrAiprf+2Kmg8BAgQIECBAgAABAgQIECBAgMB7BFTW3uNsFAIECBAgQIAAAQIECBAgQIAAgb8moLL2166o+RAgQIAAAQIECBAgQIAAAQIECLxHQGXtPc5GIUCAAAECBAgQIECAAAECBAgQ+GsCKmt/7YqaDwECBAgQIECAAAECBAgQIECAwHsEVNbe42wUAgQIECBAgAABAgQIECBAgACBvyagsvbXrqj5ECBAgAABAgQIECBAgAABAgQIvEdAZe09zkYhQIAAAQIECBAgQIAAAQIECBD4awIqa3/tipoPAQIECBAgQIAAAQIECBAgQIDAewRU1t7jbBQCBAgQIECAAAECBAgQIECAAIG/JqCy9teuqPkQIECAAAECBAgQIECAAAECBAi8R0Bl7T3ORiFAgAABAgQIECBAgAABAgQIEPhrAiprf+2Kmg8BAgQIECBAgAABAgQIECBAgMB7BFTW3uNsFAIECBAgQIAAAQIECBAgQIAAgb8moLL2166o+RAgQIAAAQIECBAgQIAAAQIECLxHQGXtPc5GIUCAAAECBAgQIECAAAECBAgQ+GsCKmt/7YqaDwECBAgQIECAAAECBAgQIECAwHsEVNbe42wUAgQIECBAgAABAgQIECBAgACBvyagsvbXrqj5ECBAgAABAgQIECBAgAABAgQIvEdAZe09zkYhQIAAAQIECBAgQIAAAQIECBD4awIqa3/tipoPAQIECBAgQIAAAQIECBAgQIDAewRU1t7jbBQCBAgQIECAAAECBAgQIECAAIG/JqCy9teuqPkQIECAAAECBAgQIECAAAECBAi8R0Bl7T3ORiFAgAABAgQIECBAgAABAgQIEPhrAiprf+2Kmg8BAgQIEPgTAo/H/X6/Px4vnMwwxEsHGHIfB+mZxOPx8tx20nql/c7Q69NHOIY2vyjpx+O+mc+31t/e2n3cb9fr9Xr7RR7ri+oIAQIECBD4GwIqa3/jOpoFAQIECBD4YwL369fX19f1/qppPW6XYYDLE0sPQ5eX6+0+FzPiIB2zCJEdgWMxb84g58urTrv9hwYneE4H5Kntbh/o/UCT3WGe2WAvn3C+7xL/2+s8NnjhC+iZVPoiQIAAAQL/bQGVtf/29ZM9AQIECBB4h8D4MNDG/4QcNhrEUydyfXVl7d+/MMLzag+1/kIBpGOME2WXwfZ+v92u18tYLKwWJB/36yUvVK76H7K/XOeq4Gn/Sq3nMT42NTw6deRnq8ZZ6Xy1lo60WQWtD8SHvQ5lPHOt+wnrq12aXF2BShfNQyG4WFf32/V2nxOqtGj25gQBAgQIECDwLQGVtW/xCSZAgAABArnA/Xo59JM9p9IMGd7Jddt4s2IzcJlBGuxwwNRBiow36cMjXo2foWUsLDVajIfbZYZcMWyfruysu9g7EjNO09xrvn0+Ii2n2Di83dfw3Nn4SN0qtcdU9xmuUtN6mcUwXNljuRcvXjbcef7QYzHygSWRTSEbfcVzJJ1KAqt+xgMbBb/bIz3slSXW3CwmuxxrJ+XD2S77HfZDcFlYG5/xnDOqNKn15BgBAgQIECDwfQGVte8b6oEAAQIECESBo5WErIZwIORS/bCkA4GhIpAGOxwwFRJS5OPWrhjOY6T+p8JcsTG2m+/75yUTKwDToAc3al3NnY5vibzv/tzGasTwqNb2T/42ymKQeSfOPpHNJ1LFsXIma7TaDCyroIRcKl0ul6EQu/e5dHmf+fa6rlY5sspweSD0WFyXkO11+LSxzZ/UbtnltL/bYGhZSWDqoNioI46k1/tctZpTvscy53zkMfZRTHZMYfxwwHEx3YZnBMc3B5drK75R93CyReZxJwQXhbVVf5U2ta4cI0CAAAECBL4voLL2fUM9ECBAgACBKBBv2S9DjWPrJ6vUtEKG99HlzyS1aiy7Y02PvQ1vGVz9hPv/SgFgaJml2brE2Q19mMkqzxDZPhkrAGWpaH9vVdRYZhhh93s60KIxqXnIOFi9XZph/ezcSbEVglYhYaDxoo9lniJmf2fudblVeqZhslJSvlkdKPRY9BO6WU1iFb7XLpz/GsqHy5/sU+0qCaxGigemyaSR04GpQFcpWxXzGAOLyQ5dx0Q3llQMCbkOpbf2TzFePpM4Sn4+9pcdWh/Ju7BNgAABAgQIPFFAZe2JmLoiQIAAgU8XqNzy7pHshDzC4zLDrfriNn4ncG/ceD7efy/6Phg8lRLGG/rQVb2nrXPVwTbqAmHii3HW35R4/s2vHTWOMfeY6/ICZfNKLbLCR3Z23sxqn/GRp6xGOz7sFCa/18/c42prgBoOhpRCR497Vp8aTsa11SoQ5fbZOytDITiWv8Yej2a7024rnSyXMKXswGry6wOVkePFyo1zrNjHGLgaa6pepyfW7qufTL/lG4/nGeSZR478dDPnokCYd2KbAAECBAgQeJ6AytrzLPVEgAABAh8vULnn3TM5EBJvm/PPn5+rH/n99d5YlfOx71WJYNl0/AD8dasQHo+HqawbTckez7VSKZgyqg0T2h/vf+rs+xvjNwNUvzQg7ztOaKP6NlW7GvWW4Bomf3qi06ezzY98jXWw8V2k87HhLaWPqbBWVBpjVuOx/N3Jcf2ukh7TPZrtdrtwdp1qmMH8vQfFYszxN7YrI1fWXmV5jYHVtT6MtpNKZdQ8x83omF4xdDy2ugj1A0VoPq5tAgQIECBAoE9AZa3PTRQBAgQIEKgIhDvmU8+JHAqJjYpb4kOBlRzLQ7X79LJF2IvtliWdkEQ82mgzFdaK9GuDTMc25xZOlp2FoZfZTf1lG4/bJf8GzOnM0GvZ53RqYyNOeVH0rAZkTeNHba2a5fWv8PUEWTkpPFZWgK86aB6YBq/XWrKj13tou7AIByvA01Na9/SYVnzMbphkvI5Z91ubld6HCdWu93B8lVKaZPX6Nmgqnqmb/I2aMe2s1jgeWSBNY4QuhrPhIwrLmcUByoNTbGVi2bn0KXDF35gp4y3d+Vwr63wY2wQIECBAgMAJAZW1E1iaEiBAgACBbYFYSWjeM1eiD4WkW+e840OBlQHLQ7HnAzfbtfHCsSk4dDbtTiPFQfLsp3OrjfHpuKEM0Gq+GHTsIBxrRUxjhM+dr/SdgE9V16ag9YynEYuNEwEtsoMTLYat7Gw8aBdGWFYZD4wbUi4sQlRWHoyPx63KhuPx+emzPOPmyOOJfLiJd/zmgPCm17yn2nal97ybuRxV3cpHz3rPJMJmsTCzs0PMahqVlOa+w8lyBceEF8nEo8XQcz+2CBAgQIAAgScKqKw9EVNXBAgQIPDpAvG+98zd7KGQeJdcFJsOBe5ekPpdeT1sNWIIzu7oQ4vsQOgoHN5XGZ7Zit/asOpjTqk2yJERprJao++EPHxVaOupsjmLuXW9IDS3LLZSSWtnkNT7yuzIRIsB1ztT6TIUiy7X/EPW0sCLwmY43ICLQ1TatLJtHV8n23xiLZ7IgWICl1C3G76Xc/86VjKJBOue8yPrgticew4RtvPI5Yjjfia73J/7TU+zjddt7jLmm3UxhlSmkXdlmwABAgQIEHiegMra8yz1RIAAAQIfLxDumosC2J7JkZB4k1w+R3QkcG/w6V59eVveCAxjpsaVe/fQYL7rH/spo2pdP4ZqT6yprSsi4XP9p2LXpDF9VWQMTXlVR7jtl+z+/ZuLTptVmazZqbJaSCzlP0w0L2plaU9NVlOKltPUi89IW+xUcktfiHG53kaQyyWUMtM7ZEP3Y+mmGLp6XbOEh82Q9KGwI92NvU8QiyVVHW1O4PgFqmQSx8xHDIfyIxuVtTmNCWWODOPlSOOR6UARvACOxcRQEJ26jOlOPaSgeHxql477TYAAAQIECDxdQGXt6aQ6JECAAIHPFQj3zU+urMVb5OUbFTvGqlyY1n15pelwKG9eu3WvHVsXE7LOY0CoFoSi2lRCi81Ck7xyMD34lcKG35fbPes33zxeZxmi9lrPj75dsy/uvB/+eTyGMVKhr6yWxqzjpQ2zuxS1keJUPv3KdhGYTWykDKpDk/lJwcttyCv8b/HQ2voS5L5xe2409DhejTHb/MoVE1zkV+kym+2icRisfKXNCQxdxRbrL9UNM45VyMX7UodKZ6XrcKhIoTW1xbN0q8hhebU7CouvIjZPKD6Sl/qIROuQyjQqwg4RIECAAAECTxBQWXsCoi4IECBAgEAQSLe5m48Ulc8pxZB0o5xJPh5zzaNSH4iBlYpKcajScTZGKiOsb8zzRvl2vGFP5ZeytjHVM7JRQ57NAeLp5uNbqctVB4/iJ0+x2I75jp9MNda0Nt4h+LjHk3PQathQ4riMx+dmBfn2TqIJ1bW0l+c8kkzvaRx6m9/WmDSXhbxQqbsUtb6hhhd+smph6irkPg0/lXQeY+Vv6C6behh1apy6LX+XGmN0iNv2KM5mY6YL/3UdH6srzqRlW2YUEsgbzinlR1N0MXLYGZrFoLzvcCg/0nxmLV6ga7xA8Wsd5usyXZN0acKzg5XnC+u613txMeKVLVILgZVplD3aI0CAAAECBJ4loLL2LEn9ECBAgACB4u1alfv2+e59tjpWfCgKAyH4WOCy8jUPHLbi/Xel/2XLab8YeHVLv7yhD63P9D8NFDdCjx095E+GjXnGZ91WOYeBSopKMWqZ2Pi0V3z26XqNb2ddf1z/1GJ8P+ruPEIa8d2a6Zs6pzrXyFnpIzA3ZhaKVFnxcixKDrWfufg2VAznvXKYnc4Hl4Frejvv9DbXEJh/yWb4ds302si+azNsXrMKUwi+3B7rBRAv1WK663YxsfID/8eDsfAVnx2cK5JD8TU9T5hlFxNeHmleiDTB1e9VRH0qy6WWchpmfOBqjFckTGNhtOzYPgECBAgQIPAEAZW1JyDqggABAgQIBIGpkjBVUyob1WfWVrfg071867O44ljXe/Hs1mpn59LEW/bVDf9mWBx6VbDIEUKP+3WDR/gUtVTpqPyOj/3svvdyrguFPFI1IvvItK3ZTp7z1EPzozahg3YlI5zf620ccyonjb2lrK/3WPWp9LE3+L9cZ7dxOc5m4sVzleFLOSfApt9+AkMBaajUZQDzrCPIkro53PQs4pTZtFHJJPbeekXmx+eUpg4X63n3mbWQQP6A4NRVvjEmFSZcSTlvmbYbSOm03wQIECBAgMDzBFTWnmepJwIECBD4eIF4m7y85d9ymULKmlh8bqZy6546mwLTga7f8f57Y5xat3Hs8gOjpoZzZvPWdHK5EZvk9YrO7bX643ZNb35Mw6bMs2ejxlOt4/mDXKmP+u8guQEZhlhnmXc3dxK2UutxJsPDVq33Dh7pPA10pG02UGjemFhoN1bU1u/azDpJY4ffRzIYJps+Oi+OEjVC9PppzOZw5eDF3tFMpipfEb2/E3JKl3HdPs6s+FS7davxyieMPOWhrtn6CY8Q1p+hLKv71QEdJECAAAECBA4LqKwdptKQAAECBAjsCbTu+TfiWiHplrt5U94K3BircioO06ibVAKGQ3Hoyoe/hYCUeyiRNWcwNh5qRjs/sUSw0yp/I2Ej7/FwSj5PKx47p7AYJEy63UVEyYdd9JBgxyah+bJ1c5Awg2XzaYA06e2iZZ58Gil+rFd+aup12Jirlyli/iSxZlLNE0XX+c4cEYapPeS1TiDvob4991s/H46Gnpu6G6E7kXEyw2U53Huecha/fWkXZ5uXc2MqThEgQIAAAQItAZW1lozjBAgQIEDgtEC46T1+kzxXqSr31bGzVm8dY1XmE2/Nz9xpp7zCzXol8XlWzdpbJZPmoZDimQybXYUTqRwRu1zs7gS3Tsde6hxD0P40ihZhZ9ldsF8encArJ9KUU12yXqaMX5FZPMmXX+dmxxlHkf54fOxhVF48W7X4Rs4xt53HqELvX9frdVx3tYTWCWTZNTaboEX7+sUomjR2tiPj2fXTfo3exsN5ygvXdJHH355Z21J0jgABAgQIPFNAZe2ZmvoiQIAAgQ8XiMWI2m1/S2YrJJ6r19a2AluDrY+He/vaE0DrtuORGDB8XeVWBin1joLY/Vo+fhZGzDuan5NqJLl3OE3iK33T4olHhhp9hwnnWS4a7jYIxbe0dkKKaS/2taZIg4TeF83Tyfl3o4N69KS0Mau563XpMOt16mrx7FS2uztI6K5ZVztSu8yyjZtZjvFItVg1Vqlqb6zcqQdGlPHDEO/3+/jezfSuzuwRxcZlWac7HFmnXG0XyXeXRDXYQQIECBAgQOCMgMraGS1tCRAgQIDApkC8+T9zN7sdEs/Wqg7bgZtpZifj/XdtgKzVtJkqJGGGreDUaqyCHO06jBG/vjP/BLfQ29xN6j37ZoIpv+MbqZeOHGuDhKsxJ7lus9+i+HbOkN9iJYU+FgfHodpnskzinJfx4XAl99Dp0bLrspt8P2wvB06pjeNUxk/n4++YTjOffMBFaHN37RZ6yUp+m5urrMM3GNzG9zgPXyW6jk4KRbohj1VvtbzXKddaxZpevSpfDXCQAAECBAgQ6BVQWeuVE0eAAAECBFYC8d4/3TuvzlcO7ISk+/z1PfdOYGWo2qHY/7r7WuM4ZHa3Ho/k4elRtux5sPx0rd90LJbVhufh0qHq2ygfqWGzyJKFNzanNIfSx2Xv0aNGJ+lwhSGdSr8j9OGlEdqXzcOxqmbIoGyehk6/Z7avy/yNsyFy3WlMOFSGtjsOAyyyi/EhMuy0ehlTWGeQ8s67D+nU2y4SKMMbe4Xb8DW1j7G+WX6dyOM+fnFE9Wt4y35Dd+tq2tdleIPm7TYMENZ2wTOt8iMLuki5HD7fWw6Qn7NNgAABAgQIPFVAZe2pnDojQIAAgc8WiDfWrQpCDWc3JN4hr+65dwNro62Oxd7rpYqydRwwq6sN54ejc3RKNh2a9stiWdnxuDdVuubOYqvQx/LwXCZanql0Xh6aQ7+yp4qyYlPZfHevDrMIq89i0SjbDe2LlRTGqU83nCuaZ51lm8ObHdODVJfLtfYBa0PraU63/W+pjb2XMwx7abFUZpPlNA5Wn1fR9/A5//Fz1r4qTyyWCWT9b2ymeSaSuuB2+ln3j9t1qKHFEtrjMb0bNGszbEadYs4xleLYImzcDe3qiWbt4xC77bIQmwQIECBAgECfgMpan5soAgQIECBQEYg3x2fuZg+ExCapShHHnQIXz9esdyuJTodqt/jTyWwjttv6PLK5YFUUB6bnyzaKa1nv+dNqYfxwsugzJjZX4zb6zibxb0gx1VCm2syc9/D02vwwVx7Y3J6Ddy56uFy1WdT7DrPOO93sIZzMm9e7jUcfk/g45+IZwanuk8qjcaWl3VbHxXWK/aeE1rPJexkHaNPMl3n8hoU59cuivDY8czY+dZZ3vt5+jB+lNi+E9IjZ5TJc/XX7BJImU2vROlabeJrAqr8Evb2aD17qOMpqkFamjhMgQIAAAQLdAipr3XQCCRAgQIDAUiDeGp+5mz0UMt9yzyOmY6ku0P69lU68/26XNcYB01jtZqlakD/ANuWawqu1mSky/2y1KXR6vqc19G740NWjKKkN9bNFLWmsueWCY4VtXeXL88pjVv0VDYeWofOtS7EIiW9ATEdjDy2GcPpQ9yNGnGv2QWDJJFVC88sxIxffHppyC79Do5BgzHbKJ5yrvp3yMeTT/hLZeeips3//4tsz0wW7XK/hfZbxnZZlXqu9qcuvr+FLCW7TOzRXLdOBlH7aP/57FTkNnk1n7i4721x8By917Ko6zDygLQIECBAgQOAJAiprT0DUBQECBAgQCALLgsIBl2Mh2R136jMGpurCxu+tm+vYcatgMwxWGTvlMP7OyhypOlOcH3dSvWZR1Ep9F4HhQ+DH54/ut/TexY0M43Nj6xaPOTzxbD+TtijADUHDc0zrT2Er3lO5LKsND8ZlP2noatFxLRWPBJl06eLFXk8xxYcGqXk6Wv7Okx7mFauL0+HrLXyeWHiMrYydV8EUFxqE58SGb70MDwMOKawXVbrOs8VqqzK3+YHAvMyXEqtcrFWn84G8+/Hz1GqVq+Ovqbnjark45Rgp0nWZGJL91G7emF8pjSrmkUs9v2zT0PMAtggQIECAAIFnC6isPVtUfwQIECBA4K8JDDf7eWUin99UjFhUXPI2YTuVFcqeHrfrdVFCSA2z6kVz+DTMY/kuwCmv2Mt2SS11EzMd6kTTu0aHDor6RNZ1ddK1/Ie3mdZqOeXA2V7oJIybBiyyyNpOn4vWalBkVJeY6mvtAuDUSz5Myi0yX+/TA3p5qxB6GZ4sq/yMj+eVy2KaUvtptgiQ3ttZXK986Yzbq95Lvri3qIlm5dGNzc0Lm13GjG9nJaTiWi445xvE6+fmVqm8udsuC7FJgAABAgQI9AmorPW5iSJAgAABAgSCwFCO2KwuzFCP+/XInf5QbZt/Ko+MzT22t0IBYvzorJ1CRruPsdx0WRTW0tc2bH0iW/Zhd+3eN89kJZlxwOEZs42AUBNqNhl626d43C6X7RLU8JxYOUj+gOH0ZszhYcEi23I2y3mMl6oy8Liylu/bXQZX9jP9abPS7B2HiokPvqVeM4XHrfmSUllrqjlBgAABAgR+SEBl7YfgDUuAAAECBAgQIEDgtMBQLjwdJIAAAQIECBB4mYDK2stodUyAAAECBAgQIECAAAECBAgQIPCnBVTW/vTlNTkCBAgQIECAAAECBAgQIECAAIGXCaisvYxWxwQIECBAgAABAgQIECBAgAABAn9aQGXtT19ekyNAgAABAgQIECBAgAABAgQIEHiZgMray2h1TIAAAQIECBAgQIAAAQIECBAg8KcFVNb+9OU1OQIECBAgQIAAAQIECBAgQIAAgZcJqKy9jFbHBAgQIECAAAECBAgQIECAAAECf1pAZe1PX16TI0CAAAECBAgQIECAAAECBAgQeJmAytrLaHVMgAABAgQIECBAgAABAgQIECDwpwVU1v705TU5AgQIECBAgAABAgQIECBAgACBlwmorL2MVscECBAgQIAAAQIECBAgQIAAAQJ/WkBl7U9fXpMjQIAAAQIECBAgQIAAAQIECBB4mYDK2stodUyAAAECBAgQIECAAAECBAgQIPCnBVTW/vTlNTkCBAgQIECAAAECBAgQIECAAIGXCaisvYxWxwQIECBAgAABAgQIECBAgAABAn9aQGXtT19ekyNAgAABAgQIECBAgAABAgQIEHiZgMray2h1TIAAAQIECBAgm8ryNwAAIABJREFUQIAAAQIECBAg8KcFVNb+9OU1OQIECBAgQIAAAQIECBAgQIAAgZcJqKy9jFbHBAgQIECAAAECBAgQIECAAAECf1pAZe1PX16TI0CAAAECBAgQIECAAAECBAgQeJmAytrLaHVMgAABAgQIECBAgAABAgQIECDwpwVU1v705TU5AgQIECBAgAABAgQIECBAgACBlwmorL2MVscECBAgQIAAAQIECBAgQIAAAQJ/WkBl7U9fXpMjQIAAAQIECBAgQIAAAQIECBB4mYDK2stodUyAAAECBP6jAo/HfzRxaRP4+wL/qZfnI/y89qqMY7x2CL0TIECAAIEtAZW1LR3nCBAg8FMC9+vl0M/1PmXYDLler7fbvX0z1gxcZpAGOxwwdZAip2RrGy/qtjbUW449buNFPDT3noRe1f/9+jX+nEv8WdnEfi6X2+cV9zZeAXsv4p4F9P6Y9gT/xvzeIdr38nxHZvkYj8dwrcMfkvl/L5frxn+I8vjD28M48wBfn/hn47CVhgQIECDwSgGVtVfq6psAAQK9Aun2KbtnqG5m1Y8DIZdrrVxxIDCMnQY7HDClnCI3OV7U7eaYrzz5uI23fIfm3pPHi/qfLsO5m9QnZRO7+fr6xHvkiX564VQ2Ltfb/b9adDwywaH40vNy+JCYifDcy/OdOoti12oN1/8z1JXhpDH8wRj+3P5ela75CSJAgACB/46Aytp/51rJlACBTxKIdwyX2337J3sSrRVyu16L/1d/VelpBa5GToM9HqtT9/stDDLc969/UuTmJXxRt5tjvvLkk2pNzRRf1X/o9+zt73Oyib2MN+Ofd5PcfCXebtfFE0BPw3nWs4bNZZqfaE1wOb+nzS4f/I9s97083zf5eI2HKtdQA56qpI9H+m/E8Op+yhVOQ11qtea3Luz38RqJAAECBH6rgMrab70y8iJA4LMF4j3Dqgq2obIT8riHR6jWdzU7gRtD5qdiTeQpd0xZvy/qNhvhZZsx9TPX8FQur+7/VDL/npJN7CQ+5fLstXRuQj/Qev+VmFcnnsPzlOt21GpvgtnTTi972RzNVbsegXiF25Wz6SV++fYVjl01XgdvXdg9VGIIECBA4G8JqKz9retpNgQI/BWBvVvQyjwPhEx3NcVNzYHAynDLQ9u3OcvWh/df1O3h8b/R8NW3dq/u/9zUn5HNfLGfsybPzeDnWx+cdWT6+voqXsd9+T/juh0e+cgE0+waBZPDY2n4AwLxAm9fu8dt/Ly1b6e3vZreurC/PRcdECBAgMB/XkBl7T9/CU2AAIE/KbB901Cd8qGQ2p3PocDqkPnBeCOzfU+VBxzbflG3xwb/XqtX39q9uv9zs39CNvnifM6iPDeFH299fNJRu/1o0OG5POG6HR7r37EJ5uvgeN9a/rxAXEzP/o9AY2Lbq+mtC7uRocMECBAg8EECKmsfdLFNlQCB/5DA9k1DdSKHQtIdef6wy6HA6pD5wRfdVL2o2zzz1fYj/azOnDpQu7V7Ts8hjVr//+IApxIdGg9xJ4LWw1SzOdHjv1R2ibflp1ZlYt2fwvGWwSS0PzWP/sZn5hzbbj22Ns11i+XwdTvU287cj00wprQ1tTDOkFJ9xCnZ+unq0RRTPbk+mJq3UlhETM0Xx9e7x1uuY7MjqZvs0NZmbL7VZP9cvHLfrqyl3BtXNyayvZoOL+z9aR1rMSW9nfW6syFwfXQ40t1lvTtHCRAgQOCVAiprr9TVNwECBHoFtm8aqr0eCqndtB4KrA6ZH3zWTVXe53BvET4dbnmvdr9ehp/G1wgObzc6cHr5Ran5h1hNX2jXGmORZ2W3uLXLPkEqfYpYmXyc0XKiRb/3OK+Q+KL/+BUSe4kvPth7yGv8CtP5Q8UXLYoM1kTpmw6KbIqYgzvLZbjcr3WzVo2fm75qfLzlv3/rSYaPYy9uf89fr1VOqwNHpjwFRfBK/elQ/v/SBNKCCS+Z9MKZhjmmMTff3Do2wfXMFkuysmjjsI2pb37baNbbZLHx/asnhzi+8A62XFiMEy+OrfvZ+hu2ns78ih7/yOb/J8zmxZ3/Wnc/SrlOZnzlLS9fXLrpan1lS/d6317Y/3v+fzgaSS//6zLyFKLZwlv82W90uXTYuxzOEyBAgMA7BVTW3qltLAIECBwVOHYLWvR2JCTdsxb/kD8SWIxU3YldFz1XG5472Op2K+k0y8bnUKXT5S1jOhpu14Z7tenGbeinqKocm0LsMdzrzd3mHedacUb5ocU4ixZz/2XuWd6VW9w5anhKLJ9kGjlvUWTQHuZ6fzSjii7aO+sLuj5SRufphHvreeblx6Mfb/mvLEssu82XzOJqlLmNe/stFkF7My6bp1nlSZ3PfzbLtlKXxzXK1Fp7xya4dssXV33RDiMmkDCRQy/hRxyrFlKuoTClYoit1bFuvmxddp93fKhlukTjQLPPpLPqpFLpWYhlC2D4izd3GiZz5H+naaQ/JkeCYpspdsxjyD9LqPgLXFy0rFH45MGNs1/Xezxb8KUk5ww2T2cnz71ActHpQoXZZldnzmIoK44/8xyzsVPWfhMgQIDA7xBQWfsd10EWBAgQKAW2/v1ftpz29kOmf7KXtz37gdMYGxux87LrjfYHTzW7bWc9TbP+Ee/pdHGPEnsbHtzKi2jZjVPR/FDyKfXxDrHVb+ZVTSwbKeY4RaT+r9fhxqt4LiX7ItjlM00x6npP4Zfh+ZzxJ441tcjG/je9WTOMNBUa09MVl2uo0p1nCqPULudywkU+McvFBcsqS0unAy2HAcZBR5NsuHkdZPNLGWSHspAJbMqjOFndqSFUG4aDVZ/j+Yf3msWvDB4qKfPPNOiJ3qaYjY1DE4yN8oU7Lcm4cVkt2on7zEs4jVS+eIan9FJRp7y2qX3xWhufcYzty2udFkj52v/uEp0sMueJZcijHG5eumVyaamHvx23+f2Ij+EBuPEPStcrOk167KH4Y5rlW9lMts308/UQl+74h28sAk5Ld+x53Gst7DhQeWVD2HTZq/+fTJpZETn2dujPxVz63fjbOy/jg2usIukQAQIECPyMgMraz7gblQABAtsC8Z//l8t146e8b9m4Y3ik+sfq/x8fsoiB8/8vXt8qbijW2aebu+z/fF83On+k3W1rvjHiGgpOq6xr90dJYNV4yDcFrG5M9yaTAqu3aTP7PGgKmI/kQ8Qk5zRS8/Fmeip1zSFpVnNEPp3xjrp6sWK/ZRb1zuJg2fMXZdSczM5W7H4RvZry3EtMspxbPD2em84cb5nC5yrDPN60DLIUY8/FLf8csZH83KjcqiuUbbK9xszqn9rUSjYez6aVjTAs/6MaZVh9b3eCjTpQSr69aGPP9WuRwqc1MWaXQsqjKfHhbFndSO2rVGmI7GQ8VO1+PDedOd5y/nuUDTT/jTr8pyb7sz9lkWY+/E7Tqf+fE3nLynYszU3/GYl10ErL6dAh22WmMaiQmHpMU1ifbYXFOZ/5D8cw2okXSKZaeZp46OyQw3pK86xtESBAgMCPCais/Ri9gQkQILAhkP6FPd2d1DbKO41DIbV/0B8LrN+zzlPYujucW53e2ug25r24z0j3R8Pn7Qxoi9Pp3iU/XO9oTjXdEOUx89nmVgorL9PcfD21FFEbaJ1kal27pmGUGFMY7EfFFkUSsafWVNJt7Jp7nu7GVsqpGHJoH09Uhl1ztPo/3rLVQzy+7qiZ93yPvJrS1iDrEbZab+hUw+q91652NXxxsN7botFydwqanjGaNu73/IMCF1c8QTeX+tTxcsS4nzrILkcMWYzUiD9wQVcprA40+z7ecn5NZDOZXidNnjj9fK57009ixR+P5gxWJx5DjTQ9+Tf9x2v5cFcK2wNIyRSTrv0pTx02nMLp+mhxjPHN+wf/w5GNtt6sjJKm0bxOlZii473zRWM7BAgQIPBeAZW193objQABAscE4j+hO55Zm+5iFhvhwYHa6NM/16e73OpGLTQ7Fu8a8pu37Gz35la3U+J57+HgcAs23ypl5ysxlUNZwLC5lcSiaba7G1UZuHIo9Fg5EfvfuvWtpLAfFVvkd7GV0bOJDpv73S4Cst2N2HhqvapSzPpM1vG4ebzlMnKxX0OoHRvDmicWnRa7J4OaOEWn006999hJfrWniK2Nem9bEXN1avGnabGbPkE/6ytdw1aW+8msrPZDsvHn1FsZTC3mBZmSno+UPc57x1vOr7QikdXs5r7D1mq2qwPLiG+9orPOHvdbXjIdrnX5KOAkd/IP2fSAVyExjxxNamerkw8Hh+bVyGrMPNp6qxKQrnMtp6GDSsii39Bif0UtwuwSIECAwBsEVNbegGwIAgQInBbY/zf2qssppKyLxc+O2fjH+BS46vLMgd2buzOdzW03u61kHg6FW5fKHVIlYnOEmEilpznF1tZuUCWZdHO1uFyxq/Le80ji6yH2o9Z578c0bkdbNMXx2PuivlLuLjyG+Di1A5/ndLxlkddyZ205Z7HIL02pdQu97DruV0dotG2O3Wxf7319tZsdFCfqvRVN1jsxqLy2aW/4vxHKN7hPHewswJ3TYzeLeR4JmYaf61nDQ1etn/iXNrvm83RbD2ulIY63rNZ9FpNLvc6/l1fryPR3O527P7JVPsWWv2B6k1lOqsxiK/1KZDh05j8c5XCrvcoYOxNNp0+tsdW4DhAgQIDADwmorP0QvGEJECCwKVD5Z/lm+/k+O7uxCxHx3+tlVSbvrGOsPDxup9uC6kd3VdofPLTdbUg9u0sLB5JBCF6dLiniCCmmmtciiyiWSgL572yw3Y6r8PFg1s9UtSqOTUfPJD6XCDai1nlXE11AraMWDVq7MTBHrGwv5j52Nn8oVwxoPpd5vGXoePxcwvWb2cZhFnLHr1cLYD5+xHluneAWCQ3X+ET++9ftTG9zdtWtcxOcu9hJcuf02E9sk9bRkZB5/OnFVlmZy0PF5Ti+8A63rGVeO5Znn8rQU25HLsRup8UIB3fmaaYrMdlOydW6isnMQRv/xQvxm+mH+We9hQMphRC7Ol3+h2NK8/ALZDOlyWG5oCr7Kc8pBRsECBAg8PMCKms/fw1kQIAAgbXAkTufRVQ7JJ5p3Bes7roW/R7crd36HAzdarbTbZjadAu02I3PdyxOLxzabnNeiywSaOWeZxprulFq3wXVR16MNRfDsq7HzGLDdv/V0P2odYv1kZkmbR1pk9rmv2Pc8IWGjZ/1s0BFfPH5XOGKrN5uNgYUX+MRL92q5XznX7m446Gl9zSB6Usk1kfyhDe26wuiERBHWazm0/nHbpazCoOe7q2Razp8aoIpaF7G9SSnxxdbp8eOFhflbCax/fbb84dvm6k8dXdo4YUkDyzm2gWrHcv41kK7AfvoRf+ndpJl+j9hjlyLxeUbx9uO255iiJ3+pC52D/2HY8jh3AtkO6X0H+KuNXbqAmhMgAABAq8QUFl7hao+CRAg8F2B7ZuGau9bIfHc4i48drMVWB2perB261NteO7gXrch+XiHVOyM44TweLp+Y7M3wtBPPXJnJrtBDfhlQsv9NGzreDo//F4PsZtVZbJHRtrvN89r2j7QdWxSX7xTR+lBrVQQm26a5xZpKz5jUmkZub6+4tcZTsWyIXRtGTpcTmG5n4bd/90aoRZZVenIP/ZTq0p19FbLNDt2ZoJZWGVJ5mfT6Y1LvnoJn71IZ9sX+aWd9sJLLdLvjZa1C1Y7lroafy/hj0xnt9NihDM7i2x6k1l0s8hgJ/0Q/J3/cEx/EQ7/udhJ6YjDYpJ2CRAgQOD3CKis/Z5rIRMCBAjMAts3DXO7bGs7JJ6t3XxuB2YjbG6+6LZgt9uQ/Tiv0LacYnYsdrWqIezPfzeJqkxrvKlxa+AYGEtJzW7KZlOv+UZskpM0u5viKi1amU4xqbixV/6aA8JW7DhPcNlkKooc7Dux7DdftdzOpomQ+gkrq8K3nlL9SHOEVfM0ZDnJnvzb6fb0tkq0PHB8gmVcO8nQbr/f2MO80PZDyhTOti+jy7361SvbhL1Ky5pF7VjR3Sr71YGi+bCThl79vVy1PH1gOfhyf91hTGa+fEOT7bA9kxA99hialp1nx1o9xfHLuCn3SnatjlJMJSSd8psAAQIEfr2Aytqvv0QSJEDgIwU6/o29ExL/Vf+1vg/YCTzoH/tfd38wvtFsv9uQ/uX2CE2XCSxOl6WIMOgeQKI7eY8Zw9pR7XGzM9nmgiilVZtSMbGCZDerdEtd5B2zKHrK09nPJW89be91mxq2EVKL/HdMppns3LZsuU2Tpli4xK6y/LLNeZyDWwdjH7Hd1+LKd+XfDGqeGCezpdGe7cEJrjrYzmW3yFItE53MpW/Cq5nEA7G300t0rngVy7DDJ06/mUGa72KNtSYUjoc3RxapVQLWk9+7FimZsuftqIMm/f/h2B6glvJ2RHWVVvgcIkCAAIHfKaCy9juvi6wIEPh0ge2bhqrObkj6t/7yZmo3sDrc8mDsfdn5stnZ/QPdhvwv1+tl+J7I9OE900DF6fp9YhSon0yPRqx7noaob+zdR6WOy9vF0Nd0TaaN9Rjpen4tKyyxaTpfJr6bVbWylnKt+M43+8PbK2uTWacej8TJlQlWW68YHrfhctdHK6d4puWwgvamWB1zym/aqE5j5+CB4OyDnVZscd6r48OoaTGszJpBzRNbvX1/gtUeYi5V+hAQ6RorIp4tZbZDHrfhHcH524G324/Cw6cFThM4s/COLubZvrDY9Ym550ExZm+5N0SnWeYbqcuvSz5Q3mLOv1yI27bxbHn5Dj6ztgzKsgnddv+HI862OsAkUfDFoxs42w7rNZbNxiYBAgQI/LCAytoPXwDDEyBAoCoQ/4W98W/wVdiBkPq/26fAxifIz4dXY2YHtu4zsmZnN490m6bVqOzsnB4ymm6Elp9oP50o7pCOTSLGtq/hBF/pL0+6fvObkr6E77AsbuqzT9Ze3vjtZpX6XeY9ZVQaPe7hGwZiGsuoytSmQ7HHZYbT+XxjaZWyWVQ/smuZuj3eciofXrP6yNDjfSzaxs9lq88wjTI2SkPnEziyPU1yfsnFrft9+Gz7sfAX0qgOkZI4lX8MWnfY1dv2NKcJbjdbnd1ftGnVfg1Vnbm6la2HspQzDpFmuAqZLnhxsac/Bsv22QrJAubeiwJdllIyP95yDs4Gmv5+FccKxCp8GnZB9o1X9FTtGgrU1/ujuBDDC2msh48reJFr03Y6sf4LXJ3UPO14OiHPJ6atCaD+fwnsnD7/5+I7y7i+xqap2CBAgACBHxdQWfvxSyABAgQIVAR2bhoqEenf+Ys7lkXLdLOQt0rHYuVg41ceteg43dlu3McsIw7tx5uR7W7nGVQz3Dkd8phupoebwvAzS2wP35jI7n1UzKuac/IccmiMPvc/T3BMfM67EjpHNdJOI6/TiqGx+2GoNNJwFx0KbOuo1jDHFuwUHec4WxTZhO/TyzPKqhl9Lccupylebuk9mI0ZZoPMOU7ZH9uYr2OCrf1e1XXmzrMkhi9huM7FuI38p1GnLyWMdl29zclUtuJQDcJKQDwUM9mJ63gJl1McHl+a1nT1dZe3H/5MXLMltw5YtB6+OjRrny+T4y2rL88Y3vZpwBfDhj976dXd84oOVyu/DENvyz+mrb9oeVyI2b4Wu39Amgt7WmhTi3XZbmizczpdipHsyMtt9zKNiRUXZXeNTXOxQYAAAQI/LKCy9sMXwPAECBCoCjTuhKpt48FjIdM/2+e7sPn+oXYfnx+bY9aJxI7z28V1o/NHjnWbptBIcOd0yqp8NilO/HLN3+GVmh75HVNv5DTfuDUaTFeqRVr0H956ll+s9dNcY9JFVHUaWy0qRHGcrajqMMfW6xwa2+ca+TMw2dQrpacTLefHalKXsb+dhCPAur4yT2FvK63TNHD2e7jDHlbi4imgdY/rhZAeSWrnP6UeBsyIe3pb5zQdaacwNaluHF5clfU5PD219RKuLo2NkGr75hj11umS5JM92rJmUTuW951qRJU/NcMTalkFa1gBva/obMThOix6jWur8uKc485dvv3V1F7Yccz0iqvADC12To9PEObPs45zbP+52L1MSaK+FjYWZQr0mwABAgR+TkBl7efsjUyAAAECv1Hg8biHn/0yxivTT3eFjZu+6tCPkPvj1ZknolePU53k+mBK575beTraMrU7McGe67WeypOOnM//8bjfbtfr9Xa7l++mHMoH8RVxQuNJ8+jsJiW8ux7m/qeQozHxtba/5sYxjnd/vOWc/Pe30qjZJT5cB9oYfUIamHarwqmjlMzRS5Hiqr+3FnY1oONgSvj4FI8NMvE9u+Njw2tFgAABAmcEVNbOaGlLgAABAgTeI/CrCjXvmfJ/ehTX6z99+SS/Eth/JGwV4gABAgQIEPhYAZW1j730Jk6AAAECv1dg/31Ivzf3T8zM9frEq/6X5/yMR9b+so+5ESBAgACBQkBlreCwQ4AAAQIEfoFALNRkn3j1C5KSQlPA9WrSOPFLBcbPQsu+6KNM04ouPewRIECAAIFtAZW1bR9nCRAgQIDA2wXc1r6d/FsDul7f4hP8foH07uX6lymkj+U/8yGP75+DEQkQIECAwO8RUFn7PddCJgQIECBAYBBQqPlvrQPX6791vWQ7CtxT/Sx8Ieg1/Mxf6emJWQuFAAECBAgcFlBZO0ylIQECBAgQeINAeprE8yJvwH7CEK7XExB18SMC4ztCh8La8udyXX1D7I8kaFACBAgQIPAfEVBZ+49cKGkSIECAwMcIPMafj5nuf36irtd//hJ+9gQej/v9frter7fb/a6k9tmLwewJECBAoE9AZa3PTRQBAgQIECBAgAABAgQIECBAgMCnC6isffoKMH8CBAgQIECAAAECBAgQIECAAIE+AZW1PjdRBAgQIECAAAECBAgQIECAAAECny6gsvbpK8D8CRAgQIAAAQIECBAgQIAAAQIE+gRU1vrcRBEgQIAAAQIECBAgQIAAAQIECHy6gMrap68A8ydAgAABAgQIECBAgAABAgQIEOgTUFnrcxNFgAABAgQIECBAgAABAgQIECDw6QIqa5++AsyfAAECBAgQIECAAAECBAgQIECgT0Blrc9NFAECBAgQIECAAAECBAgQIECAwKcLqKx9+gowfwIECBAgQIAAAQIECBAgQIAAgT4BlbU+N1EECBAgQIAAAQIECBAgQIAAAQKfLqCy9ukrwPwJECBAgAABAgQIECBAgAABAgT6BFTW+txEESBAgAABAgQIECBAgAABAgQIfLqAytqnrwDzJ0CAAAECBAgQIECAAAECBAgQ6BNQWetzE0WAAAECBAgQIECAAAECBAgQIPDpAiprn74CzJ8AAQIECBAgQIAAAQIECBAgQKBPQGWtz00UAQIECBAgQIAAAQIECBAgQIDApwuorH36CjB/AgQIECBAgAABAgQIECBAgACBPgGVtT43UQQIECBAgAABAgQIECBAgAABAp8uoLL26SvA/AkQIECAAAECBAgQIECAAAECBPoEVNb63EQRIECAAAECBAgQIECAAAECBAh8uoDK2qevAPMnQIAAAQIECBAgQIAAAQIECBDoE1BZ63MTRYAAAQIECBAgQIAAAQIECBAg8OkCKmufvgLMnwABAgQIECBAgAABAgQIECBAoE9AZa3PTRQBAgQIECBAgAABAgQIECBAgMCnC6isffoKMH8CBAgQIECAAAECBAgQIECAAIE+AZW1PjdRBAgQIECAAAECBAgQIECAAAECny6gsvbpK8D8CRAgQIAAAQIECBAgQIAAAQIE+gRU1vrcRBEgQIAAAQIECBAgQIAAAQIECHy6gMrap68A8ydAgAABAgQIECBAgAABAgQIEOgTUFnrcxNFgAABAgQIECBAgAABAgQIECDw6QIqa5++AsyfAAECBAgQIECAAAECBAgQIECgT0Blrc9NFAECBAgQIECAAAECBAgQIECAwKcLqKx9+gowfwIECBAgQIAAAQIECBAgQIAAgT4BlbU+N1EECBAgQIAAAQIECBAgQIAAAQKfLqCy9ukrwPwJECBAgAABAgQIECBAgAABAgT6BFTW+txEESBAgAABAgQIECBAgAABAgQIfLqAytqnrwDzJ0CAAAECBAgQIECAAAECBAgQ6BNQWetzE0WAAAECBAgQIECAAAECBAgQIPDpAiprn74CzJ8AAQIECBAgQIAAAQIECBAgQKBPQGWtz00UAQIECBAgQIAAAQIECBAgQIDApwuorH36CjB/AgQIECBAgAABAgQIECBAgACBPgGVtT43UQQIECBAgAABAgQIECBAgAABAp8uoLL26SvA/AkQIECAAAECBAgQIECAAAECBPoEVNb63EQRIECAAAECBAgQIECAAAECBAh8uoDK2qevAPMnQIAAAQIECBAgQIAAAQIECBDoE1BZ63MTRYAAAQIECBAgQIAAAQIECBAg8OkCKmufvgLMnwABAgQIECBAgAABAgQIECBAoE9AZa3PTRQBAgQIECBAgAABAgQIECBAgMCnC6isffoKMH8CBAgQIECAAAECBAgQIECAAIE+AZW1PjdRBAgQIECAAAECBAgQIECAAAECny6gsvbpK8D8CRAgQIAAAQIECBAgQIAAAQIE+gRU1vrcRBEgQIAAAQIECBAgQIAAAQIECHy6gMrap68A8ydAgAABAgQIECBAgAABAgQIEOgTUFnrcxNFgAABAgQIECBAgAABAgQIECDw6QIqa5++AsyfAAECBAgQIECAAAECBAgQIECgT0Blrc9NFAECBAgQIECAAAECBAgQIECAwKcLqKx9+gowfwIECBAgQIAAAQIECBAgQIAAgT4BlbU+N1EECBAgQIAAAQIECBAgQIAAAQKfLqCy9ukrwPwJECBAgAABAgQIECBAgAABAgT6BFTW+txEESBAgAABAgQIECBAgAABAgQIfLqAytrTz1itAAAgAElEQVSnrwDzJ0CAAAECBAgQIECAAAECBAgQ6BNQWetzE0WAAAECBAgQIECAAAECBAgQIPDpAiprn74CzJ8AAQIECBAgQIAAAQIECBAgQKBPQGWtz00UAQIECBAgQIAAAQIECBAgQIDApwuorH36CjB/AgQIECBAgAABAgQIECBAgACBPgGVtT43UQQIECBAgAABAgQIECBAgAABAp8uoLL26SvA/AkQIECAAAECBAgQIECAAAECBPoEVNb63EQRIECAAAECBAgQIECAAAECBAh8uoDK2qevAPMnQIAAAQIECBAgQIAAAQIECBDoE1BZ63MTRYAAAQIECBAgQIAAAQIECBAg8OkCKmufvgLMnwABAgQIECBAgAABAgQIECBAoE9AZa3PTRQBAgQIECBAgAABAgQIECBAgMCnC6isffoKMH8CBAgQIECAAAECBAgQIECAAIE+AZW1PjdRBAgQIECAAAECBAgQIECAAAECny6gsvbpK8D8CRAgQIAAAQIECBAgQIAAAQIE+gRU1vrcRBEgQIAAAQIECBAgQIAAAQIECHy6gMrap68A8ydAgAABAgQIECBAgAABAgQIEOgTUFnrcxNFgAABAgQIECBAgAABAgQIECDw6QIqa5++AsyfAAECBAgQIECAAAECBAgQIECgT0Blrc9NFAECBAgQIECAAAECBAgQIECAwKcLqKx9+gowfwIECBAgQIAAAQIECBAgQIAAgT4BlbU+N1EECBAgQIAAAQIECBAgQIAAAQKfLqCy9ukrwPwJECBAgAABAgQIECBAgAABAgT6BFTW+txEESBAgAABAgQIECBAgAABAgQIfLqAytqnrwDzJ0CAAAECBAgQIECAAAECBAgQ6BNQWetzE0WAAAECBAgQIECAAAECBAgQIPDpAiprn74CzJ8AAQIECBAgQIAAAQIECBAgQKBPQGWtz00UAQIECBAgQIAAAQIECBAgQIDApwuorH36CjB/AgQIECBAgAABAgQIECBAgACBPgGVtT43UQQIECBAgAABAgQIECBAgAABAp8uoLL26SvA/AkQIECAAAECBAgQIECAAAECBPoEVNb63EQRIECAAAECBAgQIECAAAECBAh8uoDK2qevAPMnQIAAAQIECBAgQIAAAQIECBDoE1BZ63MTRYAAAQIECBAgQIAAAQIECBAg8OkCKmufvgLMnwABAgQIECBAgAABAgQIECBAoE9AZa3PTRQBAgQIECBAgAABAgQIECBAgMCnC6isffoKMH8CBAgQIECAAAECBAgQIECAAIE+AZW1PjdRBAgQIECAAAECBAgQIECAAAECny6gsvbpK8D8CRAgQIAAAQIECBAgQIAAAQIE+gRU1vrcRBEgQIAAAQIECBAgQIAAAQIECHy6gMrap68A8ydAgAABAgQIECBAgAABAgQIEOgTUFnrcxNFgAABAgQIECBAgAABAgQIECDw6QIqa5++AsyfAAECBAgQIECAAAECBAgQIECgT0Blrc9NFAECBAgQIECAAAECBAgQIECAwKcLqKx9+gowfwIECBAgQIAAAQIECBAgQIAAgT4BlbU+N1EECBAgQIAAAQIECBAgQIAAAQKfLqCy9ukrwPwJECBAgAABAgQIECBAgAABAgT6BFTW+txEESBAgAABAgQIECBAgAABAgQIfLqAytqnrwDzJ0CAAAECBAgQIECAAAECBAgQ6BNQWetzE0WAAAECBAgQIECAAAECBAgQIPDpAiprn74CzJ8AAQIECBAgQIAAAQIECBAgQKBPQGWtz00UAQIECBAgQIAAAQIECBAgQIDApwuorH36CjB/AgQIECBAgAABAgQIECBAgACBPgGVtT43UQQIECBAgAABAgQIECBAgAABAp8uoLL26SvA/AkQIECAAAECBAgQIECAAAECBPoEVNb63EQRIECAAAECBAgQIECAAAECBAh8uoDK2qevAPMnQIAAAQIECBAgQIAAAQIECBDoE1BZ63MTRYAAAQIECBAgQIAAAQIECBAg8OkCKmufvgLMnwABAgQIECBAgAABAgQIECBAoE9AZa3PTRQBAgQIECBAgAABAgQIECBAgMCnC6isffoKMH8CBAgQIECAAAECBAgQIECAAIE+AZW1PjdRBAgQIECAAAECBAgQIECAAAECny6gsvbpK8D8CRAgQIAAAQIECBAgQIAAAQIE+gRU1vrcRBEgQIAAAQIECBAgQIAAAQIECHy6gMrap68A8ydAgAABAgQIECBAgAABAgQIEOgTUFnrcxNFgAABAgQIECBAgAABAgQI/L+9+/dx5DzvAE61+Q/UqY1rGwH/AKVPn5aIesGtiyA1S/VJExhwZbOx5ENkN4lhnbQgDGS5hpImWWkPtMAmhfdwYPAOfw25L2du35u95czzeRHkhjPzvpz38z4izC9mlgQIRBeQrEWvAPMnQIAAAQIECBAgQIAAAQIECBAoE5CslbnpRYAAAQIECBAgQIAAAQIECBAgEF1Asha9AsyfAAECBAgQIECAAAECBAgQIECgTECyVuamFwECBAgQIECAAAECBAgQIECAQHQByVr0CjB/AgQIECBAgAABAgQIECBAgACBMgHJWpmbXgQIECBAgAABAgQIECBAgAABAtEFJGvRK8D8CRAgQIAAAQIECBAgQIAAAQIEygQka2VuehEgQIAAAQIECBAgQIAAAQIECEQXkKxFrwDzJ0CAAAECBAgQIECAAAECBAgQKBOQrJW56UWAAAECBAgQIECAAAECBAgQIBBdQLIWvQLMnwABAgQIECBAgAABAgQIECBAoExAslbmphcBAgQIECBAgAABAgQIECBAgEB0Acla9AowfwIECBAgQIAAAQIECBAgQIAAgTIByVqZm14ECBAgQIAAAQIECBAgQIAAAQLRBSRr0SvA/AkQIECAAAECBAgQIECAAAECBMoEJGtlbnoRIECAAAECBAgQIECAAAECBAhEF5CsRa8A8ydAgAABAgQIECBAgAABAgQIECgTkKyVuelFgAABAgQIECBAgAABAgQIECAQXUCyFr0CzJ8AAQIECBAgQIAAAQIECBAgQKBMQLJW5qYXAQIECBAgQIAAAQIECBAgQIBAdAHJWvQKMH8CBAgQIECAAAECBAgQIECAAIEyAclamZteBAgQIECAAAECBAgQIECAAAEC0QUka9ErwPwJECBAgAABAgQIECBAgAABAgTKBCRrZW56ESBAgAABAgQIECBAgAABAgQIRBeQrEWvAPMnQIAAAQIECBAgQIAAAQIECBAoE5CslbnpRYAAAQIECBAgQIAAAQIECBAgEF1Asha9AsyfAAECBAgQIECAAAECBAgQIECgTECyVuamFwECBAgQIECAAAECBAgQIECAQHQByVr0CjB/AgQIECBAgAABAgQIECBAgACBMgHJWpmbXgQIECBAgAABAgQIECBAgAABAtEFJGvRK8D8CRAgQIAAAQIECBAgQIAAAQIEygQka2VuehEgQIAAAQIECBAgQIAAAQIECEQXkKxFrwDzJ0CAAAECBAgQIECAAAECBAgQKBOQrJW56UWAAAECBAgQIECAAAECBAgQIBBdQLIWvQLMnwABAgQIECBAgAABAgQIECBAoExAslbmphcBAgQIECBAgAABAgQIECBAgEB0Acla9AowfwIECBAgQIAAAQIECBAgQIAAgTIByVqZm14ECBAgQIAAAQIECBAgQIAAAQLRBSRr0SvA/AkQIECAAAECBAgQIECAAAECBMoEJGtlbnoRIECAAAECBAgQIECAAAECBAhEF5CsRa8A8ydAgAABAgQIECBAgAABAgQIECgTkKyVuelFgAABAgQIECBAgAABAgQIECAQXUCyFr0CzJ8AAQIECBAgQIAAAQIECBAgQKBMQLJW5qYXAQIECBAgQIAAAQIECBAgQIBAdAHJWvQKMH8CBAgQIECAAAECBAgQIECAAIEyAclamZteBAgQIECAAAECBAgQIECAAAEC0QUka9ErwPwJECBAgAABAgQIECBAgAABAgTKBCRrZW56ESBAgAABAgQIECBAgAABAgQIRBeQrEWvAPMnQIAAAQIECBAgQIAAAQIECBAoE5CslbnpRYAAAQIECBAgQIAAAQIECBAgEF1Asha9AsyfAAECBAgQIECAAAECBAgQIECgTECyVuamFwECBAgQIECAAAECBAgQIECAQHQByVr0CjB/AgQIECBAgAABAgQIECBAgACBMgHJWpmbXgQIECBAgAABAgQIECBAgAABAtEFJGvRK8D8CRAgQIAAAQIECBAgQIAAAQIEygQka2VuehEgQIAAAQIECBAgQIAAAQIECEQXkKxFrwDzJ0CAAAECBAgQIECAAAECBAgQKBOQrJW56UWAAAECBAgQIECAAAECBAgQIBBdQLIWvQLMnwABAgQIECBAgAABAgQIECBAoExAslbmphcBAgQIECBAgAABAgQIECBAgEB0Acla9AowfwIECBAgQIAAAQIECBAgQIAAgTIByVqZm14ECBAgQIAAAQIECBAgQIAAAQLRBSRr0SvA/AkQIECAAAECBAgQIECAAAECBMoEJGtlbnoRIECAAAECBAgQIECAAAECBAhEF5CsRa8A8ydAgAABAgQIECBAgAABAgQIECgTkKyVuelFgAABAgQIECBAgAABAgQIECAQXUCyFr0CzJ8AAQIECBAgQIAAAQIECBAgQKBMQLJW5qYXAQIECBAgQIAAAQIECBAgQIBAdAHJWvQKMH8CBAgQIECAAAECBAgQIECAAIEyAclamZteBAgQIECAAAECBAgQIECAAAEC0QUka9ErwPwJECBAgAABAgQIECBAgAABAgTKBCRrZW56ESBAgAABAgQIECBAgAABAgQIRBeQrEWvAPMnQIAAAQIECBAgQIAAAQIECBAoE5CslbnpRYAAAQIECBAgQIAAAQIECBAgEF1Asha9AsyfAAECBAgQIECAAAECBAgQIECgTECyVuamFwECBAgQIECAAAECBAgQIECAQHQByVr0CjB/AgQIECBAgAABAgQIECBAgACBMgHJWpmbXgQIECBAgAABAgQIECBAgAABAtEFJGvRK8D8CRAgQIAAAQIECBAgQIAAAQIEygQka2VuehEgQIAAAQIECBAgQIAAAQIECEQXkKxFrwDzJ0CAAAECBAgQIECAAAECBAgQKBOQrJW56UWAAAECBAgQIECAAAECBAgQIBBdQLIWvQLMnwABAgQIECBAgAABAgQIECBAoExAslbmphcBAgQIECBAgAABAgQIECBAgEB0Acla9AowfwIECBAgQIAAAQIECBAgQIAAgTIByVqZm14ECBAgQIAAAQIECBAgQIAAAQLRBSRr0SvA/AkQIECAAAECBAgQIECAAAECBMoEJGtlbnoRIECAAAECBAgQIECAAAECBAhEF5CsRa8A8ydAgAABAgQIECBAgAABAgQIECgTkKyVuelFgAABAgQIECBAgAABAgQIECAQXUCyFr0CzJ8AAQIECBAgQIAAAQIECBAgQKBMQLJW5qYXAQIECBAgQIAAAQIECBAgQIBAdAHJWvQKMH8CBAgQIECAAAECBAgQIECAAIEyAclamZteBAgQIECAAAECBAgQIECAAAEC0QUka9ErwPwJECBAgAABAgQIECBAgAABAgTKBCRrZW56ESBAgAABAgQIECBAgAABAgQIRBeQrEWvAPMnQIAAAQIECBAgQIAAAQIECBAoE5CslbnpRYAAAQIECBAgQIAAAQIECBAgEF1Asha9AsyfAAECBAgQIECAAAECBAgQIECgTECyVuamFwECBAgQIECAAAECBAgQIECAQHQByVr0CjB/AgQIECBAgAABAgQIECBAgACBMgHJWpmbXgQIECBAgAABAgQIECBAgAABAtEFJGvRK8D8CRAgQIAAAQIECBAgQIAAAQIEygQka2VuehEgQIAAAQIECBAgQIAAAQIECEQXkKxFrwDzJ0CAAAECBAgQIECAAAECBAgQKBOQrJW56UWAAAECBAgQIECAAAECBAgQIBBdQLIWvQLMnwABAgQIECBAgAABAgQIECBAoExAslbmphcBAgQIECBAgAABAgQIECBAgEB0Acla9AowfwIECBAgQIAAAQIECBAgQIAAgTIByVqZm14ECBAgQIAAAQIECBAgQIAAAQLRBSRr0SvA/AkQIECAAAECBAgQIECAAAECBMoEJGtlbnoRIECAAAECBAgQIECAAAECBAhEF5CsRa8A8ydAgAABAgQIECBAgAABAgQIECgTkKyVuelFgAABAgQIECBAgAABAgQIECAQXUCyFr0CzJ8AAQIECBAgQIAAAQIECBAgQKBMQLJW5qYXAQIECBAgQIAAAQIECBAgQIBAdAHJWvQKMH8CBAgQIECAAAECBAgQIECAAIEyAclamZteBAgQIECAAAECBAgQIECAAAEC0QUka9ErwPwJECBAgAABAgQIECBAgAABAgTKBCRrZW56ESBAgAABAgQIECBAgAABAgQIRBeQrEWvAPMnQIAAAQIECBAgQIAAAQIECBAoE5CslbnpRYAAAQIECBAgQIAAAQIECBAgEF1Asha9AsyfAAECBAgQIECAAAECBAgQIECgTECyVuamFwECBAgQIECAAAECBAgQIECAQHQByVr0CjB/AgQIECBAgAABAgQIECBAgACBMgHJWpmbXgQIECBAgAABAgQIECBAgAABAtEFJGvRK8D8CRAgQIAAAQIECBAgQIAAAQIEygQka2VuehEgQIAAAQIECBAgQIAAAQIECEQXkKxFrwDzJ0CAAAECBAgQIECAAAECBAgQKBOQrJW56UWAAAECBAgQIECAAAECBAgQIBBdQLIWvQLMnwABAgQIECBAgAABAgQIECBAoExAslbmphcBAgQIECBAgAABAgQIECBAgEB0Acla9AowfwIECBAgQIAAAQIECBAgQIAAgTIByVqZm14ECBAgQIAAAQIECBAgQIAAAQLRBSRr0SvA/AkQIECAAAECBAgQIECAAAECBMoEJGtlbnoRIECAAAECBAgQIECAAAECBAhEF5CsRa8A8ydAgAABAgQIECBAgAABAgQIECgTkKyVuelFgAABAgQIECBAgAABAgQIECAQXUCyFr0CzH8AAn/5y19++OGHpUaAAAECBAgQIPDOAj/88MOr1f8N4H8imgIBAgQIvB8Bydr7cfYuBJ5Q4M9//vNaI0CAAAECBAgQ6Ejgv//31ep8Wy6X19fX8/n8SiNQKnBzc7NcLs9XmSMECPRJQLLWp9VyrQSyAsvlcq0RIECAAAECBAh0JPDt/3y/OtOWy+V8Pv/uu+9ev379RiNQJPD69eu7u7v5fC5cO/Pfmd0EeiYgWevZgrlcAg8FJGtrjQABAgQIECDQnUBDsnZzc/Pq1auiOEUnAkcCt7e319fXK40Agf4LSNb6v4ZmEF5AsrbWCBAgQIAAAQLdCTQka1dXV/f390cBiRcEigTu7+/n8/lKI0Cg/wKStf6voRmEF5CsrTUCBAgQIECAQHcCzclaUYqiE4GMwNXV1UojQKD/ApK1/q+hGYQXkKytNQIECBAgQIBAdwKStUwIZNcTCEjWVhqBQQhI1gaxjCYRW0CyttYIEOiDwGg06sNlukYCBAisJWtPECIZMiMgWVtpBAYhIFkbxDKaRGwBydpaI0CgDwKStT6skmskQCAJSNYyIZBdTyAgWVtpBAYhIFkbxDKaRGwBydpaI0CgDwKStT6skmskQCAJSNaeIEQyZEZAsrbSCAxCQLI2iGU0idgCkrW1RoBAHwQka31YJddIgEASkKxlQiC7nkBAsrbSCAxCQLI2iGU0idgCkrW1RoBAHwQka31YJddIgEASkKzVQ6TFYlF/+WYxHY8ms6Nd2xeL6WQ8mZ6cvX95enQ2GY2n2XFyYw9zn2RtpREYhIBkbRDLaBKxBSRra40AgT4ISNb6sEqukQCBJCBZO+RYs8l4NBofxWVno7V04PjU2WS0T+GOj6ZX+0OHtwu2JVlbaQQGISBZG8QymkRsAcnaWiNAoA8CkrU+rJJrJEAgCUjWjgKuTbg2me3vPqvnZW/evKluPksHj7OzNEb9zKOjVbA2etjyN8MdXc6QXkjWVhqBQQhI1gaxjCYRW0CyttYIEOiDgGStD6vkGgkQSAKStdP0ajGdTKaz2XSyaeN0H9tmczpbPD5Zq3K18WT2sJ08eXp6HUN7LVlbaQQGISBZG8QymkRsAcnaWiNAoA8CkrU+rJJrJEAgCUjWsgnWYp+spVBtm66VJGvpTrbqSdDZZDyeTA83w2Xfdsg7JWsrjcAgBCRrg1hGk4gtIFlbawQI9EFAstaHVXKNBAgkAcnaPs2aTeo/SbCY7VOw2rOdj7xnbZ+rpedHqydNR+Pao6b7t46wIVlbaQQGISBZG8QymkRsAcnaWiNAoA8CkrU+rJJrJEAgCUjWdqnWJvkab//6WS1Nq/9C6OOStXTn2/FPgqYfDR2d/kzC7gqG/a9kbaURGISAZG0Qy2gSsQUka2uNAIE+CEjW+rBKrpEAgSQgWavnWZsfG9jcVXb4RYJ9nNb4Cwb1cRq3a3fDNZ43sIOStZVGYBACkrVBLKNJxBaQrK01AgT6ICBZ68MquUYCBJKAZO0kwFpMx7v71rbZ2iFia03W0i1pra3+zOnJmw/5pWRtpREYhIBkbRDLaBKxBSRra40AgT4ISNb6sEqukQCBJCBZa0izqkdCJ5Nx9RME1Xn729fqT4seRth0mM7Otmn6pdHp4tAjzpZkbaURGISAZG0Qy2gSsQUka2uNAIE+CEjW+rBKrpEAgSQgWTvJthazae0XPKufIDgEa2/eJlmrBWfpHrajW9TSeJK1lUaAQH8FJGv9XTtXTmArIFlbawQI9EFAstaHVXKNBAgkAcnacbJ2ei9aFa1tf9XgzVs8DTo+Cs4eBGkPdhy/+5BfuWdtpREYhIBkbRDLaBKxBSRra40AgT4ISNb6sEqukQCBJCBZO06zUvR1CNJSzpba/jazx92zVnUfjyeHm+AkayuNAIF+C0jW+r1+rp7AarWSrK01AgT6ICBZ68MquUYCBJKAZO0oWTsO1javFrWds93Tnaf3tm1GOd67y+UOwVx6mjS9qkasPTV6dA0DfeGetZVGYBACkrVBLKNJxBaQrK01AgT6ICBZ68MquUYCBJKAZK0eZNUytOrJz20mdhyYVR0yu9L+xWw22/w+QZWejcbT6dFfVltsTjh6n/oFDHhbsrbSCAxCQLI2iGU0idgCkrW1RoBAHwQka31YJddIgEASkKzVwqxa4FXdb7Z/CHR3r9nh3DPJWnXCYjGbVE+RTmaLhz1T/pYeMj08c3oYdchbkrWVRmAQApK1QSyjScQWkKytNQIE+iAgWevDKrlGAgSSgGTtkGYdgrW0dRx9bX8ytLrnbDabTVN0dgjeNmMstvurv8yWUrXUqhRtNJ7UW4rdTjsfLmOgW5K1lUZgEAKStUEso0nEFpCsrTUCBPogIFnrwyq5RgIEkoBkbR9kHW5DW0wn4/wtZZucbPOrBvUzqihuu/vwewWboRcphztqk9pvGuzffugbkrWVRmAQApK1QSyjScQWkKytNQIE+iAgWevDKrlGAgSSgGStm0Tr8AfWuhlveKNI1lYagUEISNYGsYwmEVtAsrbWCBDog4BkrQ+r5BoJEEgCkrXhZViXOSPJ2kojMAgBydogltEkYgtI1tYaAQJ9EJCs9WGVXCMBAklAsnaZOdTwrkqyttIIDEJAsjaIZTSJ2AKStbVGgEAfBCRrfVgl10iAQBKQrA0vw7rMGUnWVhqBQQhI1gaxjCYRW0CyttYIEOiDgGStD6vkGgkQSAKStcvMoYZ3VZK1lUZgEAKStUEso0nEFpCsrTUCBAgQIECAQHcCkrXhZViXOSPJ2kojMAgBydogltEkYgtI1tYaAQIECBAgQKA7gYZkbT6f39/fX2ZM46r6JXB/fy9ZW2kEBiEgWRvEMppEbAHJ2lojQIAAAQIECHQn0JCsXV9f397e9ivBcbWXKXB3d3dzc7PSCBDov4Bkrf9raAbhBSRra40AAQIECBAg0J1AQ7K2XC7n8/nd3Z071y4zrurFVd3f39/e3s7n8+VyudIIEOi/gGSt/2toBuEFPvjkt2uNAAECBAgQIECgI4EPPvnt6nxbLpcvX7784osvPtcIFAm8ePHiq6++Equd/4/MEQI9E5Cs9WzBXC6BhwJ//bPff/DJl6N/+Df/R4AAAQIECBAg8I4CH3zy5V//7PcP/xeXPQQIECBAICsgWcuy2EmAAAECBAgQIECAAAECBAgQIECgRUCy1gLkMAECBAgQIECAAAECBAgQIECAAIGsgGQty2InAQIECBAgQIAAAQIECBAgQIAAgRYByVoLkMMECBAgQIAAAQIECBAgQIAAAQIEsgKStSyLnQQIECBAgAABAgQIECBAgAABAgRaBCRrLUAOEyBAgAABAgQIECBAgAABAgQIEMgKSNayLHYSIECAAAECBAgQIECAAAECBAgQaBGQrLUAOUyAAAECBAgQIECAAAECBAgQIEAgKyBZy7LYSYAAAQIECBAgQIAAAQIECBAgQKBFQLLWAuQwAQIECBAgQIAAAQIECBAgQIAAgayAZC3LYicBAgQIECBAgAABAgQIECBAgACBFgHJWguQwwQIECBAgAABAgQIECBAgAABAgSyApK1LIudBAgQIECAAAECBAgQIECAAAECBFoEJGstQA4TIECAAAECBAgQIECAAAECBAgQyApI1rIsdhIgQIAAAQIECBAgQIAAAQIECBBoEZCstQA5TIAAAQIECBAgQIAAAQIECBAgQCArIFnLsthJgAABAgQIECBAgAABAgQIECBAoEVAstYC5DABAgQIECBAgAABAqOH+KEAABt6SURBVAQIECBAgACBrIBkLctiJwECBAgQIECAAAECBAgQIECAAIEWAclaC5DDBAgQIECAAAECBAgQIECAAAECBLICkrUsi50ECBAgQIAAAQIECBAgQIAAAQIEWgQkay1ADhMgQIAAAQIECBAgQIAAAQIECBDICkjWsix2EiBAgAABAgQIECBAgAABAgQIEGgRkKy1ADlMgAABAgQIECBAgAABAgQIECBAICsgWcuy2EmAAAECBAgQIECAAAECBAgQIECgRUCy1gLkMAECBAgQIECAAAECBAgQIECAAIGsgGQty2InAQIECBAgQIAAAQIECBAgQIAAgRYByVoLkMMECBAgQIAAAQIECBAgQIAAAQIEsgKStSyLnQQIECBAgAABAgQIECBAgAABAgRaBCRrLUAOEyBAgAABAgQIECBAgAABAgQIEMgKSNayLHYSIECAAAECBAgQIECAAAECBAgQaBGQrLUAOUyAAAECBAgQIECAAAECBAgQIEAgKyBZy7LYSYAAAQIECBAgQIAAAQIECBAgQKBFQLLWAuQwAQIECBAgQIAAAQIECBAgQIAAgayAZC3LYicBAgQIECBAgAABAgQIECBAgACBFgHJWguQwwQIECBAgAABAgQIECBAgAABAgSyApK1LIudBAgQIECAAAECBAgQIECAAAECBFoEJGstQA4TIECAAAECBAgQIECAAAECBAgQyApI1rIsdhIgQIAAAQIECBAgQIAAAQIECBBoEZCstQA5TIAAAQIECBAgQIAAAQIECBAgQCArIFnLsthJgAABAgQIECBAgAABAgQIECBAoEVAstYC5DABAgQIECBAgAABAgQIECBAgACBrIBkLctiJwECBAgQIECAAAECBAgQIECAAIEWAclaC5DDBAgQIECAAAECBAgQIECAAAECBLICkrUsi50ECBAgQIAAAQIECBAgQIAAAQIEWgQkay1ADhMgQIAAAQIECBAgQIAAAQIECBDICkjWsix2EiBAgAABAgQIECBAgAABAgQIEGgRkKy1ADlMgAABAgQIECBAgAABAgQIECBAICsgWcuy2EmAAAECBAgQIECAAAECBAgQIECgRUCy1gLkMAECBAgQIECAAAECBAgQIECAAIGsgGQty2InAQIECBAgQIAAAQIECBAgQIAAgRYByVoLkMMECBAgQIAAAQIECBAgQIAAAQIEsgKStSyLnQQIECBAgAABAgQIECBAgAABAgRaBCRrLUAOEyBAgAABAgQIECBAgAABAgQIEMgKSNayLHYSIECAAAECBAgQIECAAAECBAgQaBGQrLUAOUyAAAECBAgQIECAAAECBAgQIEAgKyBZy7LYSYAAAQIECBAgQIAAAQIECBAgQKBFQLLWAuQwAQIECBAgQIAAAQIECBAgQIAAgayAZC3LYicBAgQIECBAgAABAgQIECBAgACBFgHJWguQwwQIECBAgAABAgQIECBAgAABAgSyApK1LIudBAgQIECAAAECBAgQIECAAAECBFoEJGstQA4TIECAAAECBAgQIECAAAECBAgQyApI1rIsdhIgQIAAAQIECBAgQIAAAQIECBBoEZCstQA5TIAAAQIECBAgQIAAAQIECBAgQCArIFnLsthJgAABAgQIECBAgAABAgQIECBAoEVAstYC5DABAgQIECBAgAABAgQIECBAgACBrIBkLctiJwECBAgQIECAAAECBAgQIECAAIEWAclaC5DDBAgQIECAAAECBAgQIECAAAECBLICkrUsi50ECBAgQIAAAQIECBAgQIAAAQIEWgQkay1ADhMgQIAAAQIECBAgQIAAAQIECBDICkjWsix2EiBAgAABAgQIECBAgAABAgQIEGgRkKy1ADlMgAABAgQIECBAgAABAgQIECBAICsgWcuy2EmAAAECBB4nsFwur6+v5/P5lUagVODm5ma5XLZWnmIrBdbvIPCWxdZajU4gQIAAAQIEJGtqgAABAgQIvKvAcrmcz+fffffd69ev32gEigRev359d3c3n8+bwzXFVqSr05HAWxbbu34y6k+AAAECBGIISNZirLNZEiBAgMBTCtzc3Lx69erom6sXBIoEbm9vr6+vG6pVsRW56pQRaC22hjp0iAABAgQIENgLSNb2FDYIECBAgEChwNXV1f39feabq10EHilwf38/n88bClGxPVLU6WcFWoutoQ4dIkCAAAECBPYCkrU9hQ0CBAgQIFAocHV1dfbLqwMEHilwdXXVUIiK7ZGcTm8SaC62hjp0iAABAgQIENgLSNb2FDYIECBAgEChgLCj6bu7Y48UaA47FNsjOZ3eJNBcbIUfiLoRIECAAIFgApK1YAtuugQIECDwBALCjqbv7o49UqA57FBsj+R0epNAc7E9wYelIQkQIECAwAAFJGsDXFRTIkCAAIH3LCDsaPru7tgjBZrDDsX2SE6nNwk0F9t7/iD1dgQIECBAoKcCkrWeLpzLJkCAAIELEhB2NH13d+yRAs1hh2J7JKfTmwSai+2CPmRdCgECBAgQuGABydoFL45LI0CAAIGeCAg7mr67O/ZIgeawQ7E9ktPpTQLNxdaTD2CXSYAAAQIEnllAsvbMC+DtCRAgQGAAAsKOpu/uuWOL6WQ8meWPjMeT6SJ3KMq+5rBDsXVWB4vZZDwaT7N1ePZN8qW72dvDsm0utgF8OJsCAQIECBB4DwKStfeA7C0IECBAYOAC8cKOxXTyqHYalc0mo1E2WUsHxqdnn005hnmgOezoUbEtzrXdup0c3+0+/ffktMPL7YmHHfmt0/HS6ypVG40ns20atphWIdu5bGw2GW/LMp24Ld3ZZF+rZws6996XtK+52Ab+wW16BAgQIECgIwHJWkeQhiFAgACBwAI9Cjs6+lKfgoZdG1Vt92r778nO0xStlknUryilFtvYYjGbPvJmovpAvd5uDjt6U2wpbMq3bUaVPWF8CLu2i5g9bTNwVVZV0eTfaLP3NKldzFKZpZvVjnK0bdZ2sndfSbuS3Sdr9TCtvr3v0YuN5mIL/KFu6gQIECBA4BECkrVHYDmVAAECBAhkBXoTdjzJd/1sqpB2niYah3dP6UTmaL1TLWQ79Iux1Rx29KbYNqs5y91GtlnHkxNms9l0Mk6Z1y5dzZ5WH29bD/VdVWqWQrNaq5VNemozpWqT6ezQajdgVm//INzbXUg6sE3WDjexvXnzpprJ5DBgtXUU29Uu4bI2m4ttpREgQIAAAQJvISBZewskpxAgQIAAgUaB3oQdT/KlPsUKp/ekbbKG3FOd6eyTVruFqR63bYKXfuQTncI2hx29KbbW9TtzQlUhtUI4c9oZ8iqRrfU+Pi3dl3bcqpjt8GTzdFrle9UdbbWui9m+pWhuXMvlFouq2E9quilXro37/JvNxdb4secgAQIECBAgsBWQrCkFAgQIECDwrgK9CTue5It8Sj7ePll782ZR3fazva0o3WJU5SBVnnIyTHbkJ5nDRQ3aHHb0pthaE7FzJ5yEY+dOy6/ZSef8Sbu9Z4dezI6eFF3MDre1Vbe8jWtZ3L6Eq1HT+58N9nbve0H/Nhfbu34y6k+AAAECBGIISNZirLNZEiBAgMBTCvQm7HiSb/QpnjiJxLbPx+XuWUuXUOux2Vykf0a1uGKyubWouhHowdhPMosLGrQ57OhNsaU1bcyYzp5wfOD4Vds6nU3WFrX7zmZVm26Krnb/2Wb/4f8vTu+YrEavSnWfvKXLq/0HkF72qWKbi22lESBAgAABAm8hIFl7CySnECBAgACBRoHehB1tsUTR8WyW0BSH1G7r2W3uH9Lb3wuUHsur/vJWSzxTdMmX3ak57OhNsTWVQLUA505I+2vp1LnT8ot4Nlnbl9jmadDt05uHR0M3Ow6v09ZRRLYdubpFbZL+Wlv6Y21VAY8Pt6ntCjp/cRe4t7nYGj/2HCRAgAABAgS2ApI1pUCAAAECBN5VoDdhRzff7OvPxk3S3WWj0fjofrPtzqOb0Go/uZiikm1mkYKIo/jiwRUupumv0T/YPeQdzWFHb4qtSsSOfilgtmm75XwYmS1SaVU/IlArinTaUSnt0tdaSR3KYZt/tVTMrErGju+prHpO9veiHYZ882b7s6HVwX3JVjvHKQHe7zq6HbM+wOVuNxfbu34y6k+AAAECBGIISNZirLNZEiBAgMBTCvQm7OjmC376fcVay93sU6UjKXDbt8k+xkg5xO4pwdlkv9nNtQ1hlOawozfFViVi21vDjv7ZpWbnTji+VWz7+wD7QjpsHEqqtupVPrYrr9r+w2Z1Rr3sNnFeuqpN4PYwXVtMJ9udi1ku6N2Xcb22D+94yVvNxfaUn5rGJkCAAAECwxGQrA1nLc2EAAECBJ5LoDdhx1N8xa+Cil1Ysn+Dh/cj1Q/tko901qbrSVp3iE9OYpb9KAPeaA47elNsmxKYLR603dJVJxxuats8YDnbHd3/21BK+3MOG43J2ubes/TTnot0I9p0e4PcaDzZ3xe5zd3Sg56HQXdb+Vrf/OXAVNPp+K62d30u/N/mYnuuT1TvS4AAAQIE+iUgWevXerlaAgQIELhEgd6EHU/xLT8ffOT3pvffRB/VLUDppG0mV2USh5RltmnT8f6Ep7j0Cx2zOezoTbGdL4Gt++kJ6XUmmDo9rXnVNuW1v0Fyf/Ki+r2CKkOr7kxLd9GNq7+Utj1lsX26s8rcNo+kjnZ3r1VXdnTf3fbFPkZLZ0wmbb/ZsL+ay9loLrZL/LR1TQQIECBA4PIEJGuXtyauiAABAgT6JtCbsOMJvtBXScaDW9aqR/j2scPp21Z9RuMUX+x6Vsnagzykyise3sV0Ot7AXjeHHb0pttZE7OEJac+DbO3haU3rfS5ZS/eobW9DS78SuvtbbynqTZFaenw5/WLB4Ua16rdEj94pXciuXo9/4XYXGB8dP+p7sS+ai61vn8SulwABAgQIPI+AZO153L0rAQIECAxJoDdhR/ff788Ea83JWgoiqhDlkKJI1g5r0xx29KbYWhOx3AlVWdTiq22CdTakPahtt84na8enph9LODwMWv/jaSlpy/wJt+2V7aK304Kt3vdQz8dvdsGvmottSJ/S5kKAAAECBJ5OQLL2dLZGJkCAAIEoAr0JOzr/hp8JQjbvkUtN6u++CSLSM3Wb+4ROg4rDKMcxS32MoW43hx29Kba2Esinr5vCqC966zhHdVD1Px/EVX/Pb/Mo5+ZZ0F1SlgbZ/zLp0c1ru+F3R1O/058Wrf47GFd3vtUvfdf1gv9tLrYon+DmSYAAAQIE3k1AsvZufnoTIECAAIHVqjdhR7ff8B+GIIfxm+OQKohIEcRmiPF0kTYe5iHpvJ4lFQeC4q3msKM3xdZcAudvRjvNxqpxHvwJvlnVag91brlPe5+uwmKRflPhaO/p3WtHB09fHP5I2/5XDzZFXNVpVdgP6/h0kAt63VxsPt0JECBAgACBtxGQrL2NknMIECBAgECTQG/Cjg6/0W/ihLMhQkOsUmUTh46LaXr0bjNc7o/ES9aOS683xdZQAps6PHvCcT5VvcpVRnXD42lJtyVr1fmL9EfUppPNn1fb/5TBcd72YODZ9uHR6odEty8m003SdvgDbZvHnLM3vZ2OeBGvJWvH/3l5RYAAAQIESgQkayVq+hAgQIAAgbpAb8KOzr7Lb7KPhtDrXGpSBQ+HWG1/QSkQGae/dnXU0igNb7LvPayN5rAjXrF1trqzafW85v5h0HQj3Mn9a9n32v1RwCpTq52xmKUfrx2fVui5Gq/1vJzN5mKrf8rZJkCAAAECBM4JSNbOydhPgAABAgTeViBi2HH6SN2DrODsCfksYzHb/XRjbaSTX3GsHRnyZnPYEbHYulrtqsjy9df8FmeL+c2Z0c7sbn6X5zjaXGxv+wnoPAIECBAgEFtAshZ7/c2eAAECBLoQEHY8RyYw2PdsDjsU22AX/jkm1lxsXXw6GoMAAQIECAxfQLI2/DU2QwIECBB4agFhx3NkAoN9z+awQ7ENduGfY2LNxfbUn5zGJ0CAAAECwxCQrA1jHc2CAAECBJ5TQNjxHJnAYN+zOexQbINd+OeYWHOxPeenqvcmQIAAAQL9EZCs9WetXCkBAgQIXKqAsOM5MoHBvmdz2KHYBrvwzzGx5mK71E9c10WAAAECBC5LQLJ2WevhaggQIECgjwLCjufIBAb7ns1hh2Ib7MI/x8Sai62Pn8aumQABAgQIvH8Bydr7N/eOBAgQIDA0gfl8fn9//xzfi73n0ATu7++bww7FNrQlf775tBbb0D6pzYcAAQIECDyNgGTtaVyNSoAAAQKRBK6vr29vb5/vC7J3Ho7A3d3dzc1Nw389im04i/3cM2kttoY6dIgAAQIECBDYC0jW9hQ2CBAgQIBAocByuZzP53d3d+5ce+6soMfvf39/f3t7O5/Pl8tlQyEqth6v8cVc+lsWW0MdOkSAAAECBAjsBSRrewobBAgQIECgXGC5XL58+fKLL774XCNQJPDixYuvvvqqOVbbFKhiKwLW6SDw9sVW/pmoJwECBAgQCCMgWQuz1CZKgAABAgQIECBAgAABAgQIECDQqYBkrVNOgxEgQIAAAQIECBAgQIAAAQIECIQRkKyFWWoTJUCAAAECBAgQIECAAAECBAgQ6FRAstYpp8EIECBAgAABAgQIECBAgAABAgTCCEjWwiy1iRIgQIAAAQIECBAgQIAAAQIECHQqIFnrlNNgBAgQIECAAAECBAgQIECAAAECYQQka2GW2kQJECBAgAABAgQIECBAgAABAgQ6FZCsdcppMAIECBAgQIAAAQIECBAgQIAAgTACkrUwS22iBAgQIECAAAECBAgQIECAAAECnQpI1jrlNBgBAgQIECBAgAABAgQIECBAgEAYAclamKU2UQIECBAgQIAAAQIECBAgQIAAgU4FJGudchqMAAECBAgQIECAAAECBAgQIEAgjIBkLcxSmygBAgQIECBAgAABAgQIECBAgECnApK1TjkNRoAAAQIECBAgQIAAAQIECBAgEEZAshZmqU2UAAECBAgQIECAAAECBAgQIECgUwHJWqecBiNAgAABAgQIECBAgAABAgQIEAgjIFkLs9QmSoAAAQIECBAgQIAAAQIECBAg0KmAZK1TToMRIECAAAECBAgQIECAAAECBAiEEZCshVlqEyVAgAABAgQIECBAgAABAgQIEOhUQLLWKafBCBAgQIAAAQIECBAgQIAAAQIEwghI1sIstYkSIECAAAECBAgQIECAAAECBAh0KiBZ65TTYAQIECBAgAABAgQIECBAgAABAmEEJGthltpECRAgQIAAAQIECBAgQIAAAQIEOhWQrHXKaTACBAgQIECAAAECBAgQIECAAIEwApK1MEttogQIECBAgAABAgQIECBAgAABAp0KSNY65TQYAQIECBAgQIAAAQIECBAgQIBAGAHJWpilNlECBAgQIECAAAECBAgQIECAAIFOBSRrnXIajAABAgQIECBAgAABAgQIECBAIIyAZC3MUpsoAQIECBAgQIAAAQIECBAgQIBApwKStU45DUaAAAECBAgQIECAAAECBAgQIBBGQLIWZqlNlAABAgQIECBAgAABAgQIECBAoFMByVqnnAYjQIAAAQIECBAgQIAAAQIECBAIIyBZC7PUJkqAAAECBAgQIECAAAECBAgQINCpgGStU06DESBAgAABAgQIECBAgAABAgQIhBGQrIVZahMlQIAAAQIECBAgQIAAAQIECBDoVECy1imnwQgQIECAAAECBAgQIECAAAECBMIISNbCLLWJEiBAgAABAgQIECBAgAABAgQIdCogWeuU02AECBAgQIAAAQIECBAgQIAAAQJhBCRrYZbaRAkQIECAAAECBAgQIECAAAECBDoVkKx1ymkwAgQIECBAgAABAgQIECBAgACBMAKStTBLbaIECBAgQIAAAQIECBAgQIAAAQKdCkjWOuU0GAECBAgQIECAAAECBAgQIECAQBgByVqYpTZRAgQIECBAgAABAgQIECBAgACBTgUka51yGowAAQIECBAgQIAAAQIECBAgQCCMgGQtzFKbKAECBAgQIECAAAECBAgQIECAQKcCkrVOOQ1GgAABAgQIECBAgAABAgQIECAQRkCyFmapTZQAAQIECBAgQIAAAQIECBAgQKBTAclap5wGI0CAAAECBAgQIECAAAECBAgQCCMgWQuz1CZKgAABAgQIECBAgAABAgQIECDQqYBkrVNOgxEgQIAAAQIECBAgQIAAAQIECIQRkKyFWWoTJUCAAAECBAgQIECAAAECBAgQ6FRAstYpp8EIECBAgAABAgQIECBAgAABAgTCCEjWwiy1iRIgQIAAAQIECBAgQIAAAQIECHQqIFnrlNNgBAgQIECAAAECBAgQIECAAAECYQQka2GW2kQJECBAgAABAgQIECBAgAABAgQ6FZCsdcppMAIECBAgQIAAAQIECBAgQIAAgTACkrUwS22iBAgQIECAAAECBAgQIECAAAECnQpI1jrlNBgBAgQIECBAgAABAgQIECBAgEAYAclamKU2UQIECBAgQIAAAQIECBAgQIAAgU4FJGudchqMAAECBAgQIECAAAECBAgQIEAgjIBkLcxSmygBAgQIECBAgAABAgQIECBAgECnApK1TjkNRoAAAQIECBAgQIAAAQIECBAgEEZAshZmqU2UAAECBAgQIECAAAECBAgQIECgUwHJWqecBiNAgAABAgQIECBAgAABAgQIEAgjIFkLs9QmSoAAAQIECBAgQIAAAQIECBAg0KmAZK1TToMRIECAAAECBAgQIECAAAECBAiEERh9++23YSZrogQIECBAgAABAgQIECBAgAABAgS6Ebi7uxv9+te/7mYwoxAgQIAAAQIECBAgQIAAAQIECBAII/CnP/1p9Nlnn4WZr4kSIECAAAECBAgQIECAAAECBAgQ6Ebg5cuXo08//bSbwYxCgAABAgQIECBAgAABAgQIECBAIIzAl19+OfrJT37y85//PMyUTZQAAQIECBAgQIAAAQIECBAgQIDAuwr88Y9//NWvfjX66KOPPv7448Vi8a7j6U+AAAECBAgQIECAAAECBAgQIEAggMDt99//4he/+I9//+3oww8//NGPfvTTn/5UuBZg3U2RAAECBAgQIECAAAECBAgQIEDgnQT+8+a//vmXv3nx4sU33/wuJWubcO3jjz/2WOg7uepMgAABAgQIECBAgAABAgQIECAwaIGvf/fLv/n7f/zXFy++/vrrq6urbbL24YcffvTRRz/+8Y8//fTTzz777PPPP//2228H7WByBAgQIECAAAECBAgQIECAAAECBNoFvv/++8Vi8Yc//OHFi9/8y8/+7q/+9p9++fLlN998c3V19f+csJuyTlFbXwAAAABJRU5ErkJggg==;" vertex="1" parent="1">
                    <mxGeometry x="120" y="210" width="1651" height="900" as="geometry"/>
                </mxCell>
            </root>
        </mxGraphModel>
    </diagram>
</mxfile>